<svg width="20" height="20" viewBox="0 0 20 20" fill="none" xmlns="http://www.w3.org/2000/svg">
<mask id="mask0_4155_9889" style="mask-type:luminance" maskUnits="userSpaceOnUse" x="2" y="2" width="16" height="17">
<path fill-rule="evenodd" clip-rule="evenodd" d="M2.5 2.00049H17.5V18.0005H2.5V2.00049Z" fill="white"/>
</mask>
<g mask="url(#mask0_4155_9889)">
<path fill-rule="evenodd" clip-rule="evenodd" d="M6.54646 13.9227C6.72458 13.9227 6.9027 13.9451 7.07693 13.9914C7.60273 14.1319 8.05931 14.481 8.32999 14.9497C8.50577 15.2439 8.603 15.5875 8.60611 15.938C8.60611 16.4399 9.01213 16.8422 9.51148 16.8422H10.4861C10.9831 16.8422 11.3891 16.4423 11.3915 15.9488C11.3883 15.4037 11.603 14.8856 11.9958 14.4956C12.3832 14.1111 12.9245 13.8802 13.4659 13.8957C13.8206 13.9042 14.162 13.9991 14.463 14.169C14.8963 14.4153 15.4493 14.2686 15.6998 13.8439L16.2162 12.9891C16.3313 12.7922 16.3648 12.5452 16.3033 12.3174C16.2427 12.0896 16.0902 11.8919 15.8849 11.7753C15.4042 11.5004 15.0612 11.0572 14.9188 10.5259C14.7781 10.0047 14.8551 9.43565 15.1296 8.96695C15.3085 8.65808 15.5706 8.39786 15.8849 8.21872C16.3065 7.97395 16.4542 7.42648 16.2092 7.00025C16.1991 6.98326 16.1898 6.9655 16.182 6.94697L15.7262 6.16245C15.4781 5.7339 14.9258 5.58642 14.4926 5.83119C14.0244 6.10608 13.4674 6.18484 12.9323 6.04508C12.3979 5.90764 11.9499 5.57174 11.6707 5.09764C11.4918 4.80113 11.3946 4.45597 11.3915 4.10463C11.3985 3.84055 11.3051 3.6035 11.1356 3.42976C10.9668 3.2568 10.7295 3.15873 10.4861 3.15873H9.51148C9.27036 3.15873 9.0448 3.25217 8.87446 3.4205C8.70489 3.5896 8.61233 3.8143 8.61389 4.05367C8.59755 5.18257 7.66807 6.09141 6.54257 6.09141C6.18167 6.08755 5.83399 5.99103 5.5322 5.81189C5.10829 5.57252 4.55448 5.72 4.30636 6.14855L3.77978 7.00797C3.53866 7.42339 3.68645 7.9724 4.1158 8.22026C4.75283 8.58627 5.15029 9.26886 5.15029 10.0009C5.15029 10.7329 4.75283 11.4147 4.11424 11.7815C3.68722 12.027 3.53944 12.573 3.78678 12.9976L4.27758 13.8378C4.39892 14.0547 4.59726 14.2115 4.82672 14.2756C5.0554 14.3389 5.30741 14.3119 5.51742 14.196C5.82621 14.0161 6.18556 13.9227 6.54646 13.9227ZM10.4861 18.0005H9.51145C8.36884 18.0005 7.43936 17.0785 7.43936 15.9442C7.4378 15.8045 7.39736 15.6593 7.32191 15.5334C7.19979 15.3219 7.00223 15.1705 6.77433 15.1103C6.54799 15.0501 6.29986 15.0833 6.09608 15.2006C5.60761 15.4709 5.03281 15.5365 4.50701 15.3898C3.98198 15.2423 3.52852 14.884 3.26251 14.4092L2.77637 13.5775C2.20779 12.5984 2.54614 11.3437 3.53085 10.7784C3.81009 10.6186 3.98354 10.3205 3.98354 10.0009C3.98354 9.6812 3.81009 9.38237 3.53085 9.22253C2.54536 8.65422 2.20779 7.39637 2.77559 6.41726L3.30295 5.55785C3.86375 4.58955 5.13159 4.24826 6.12019 4.81194C6.25475 4.89147 6.40098 4.93162 6.54954 4.93317C7.03412 4.93317 7.43936 4.53627 7.44714 4.04827C7.44403 3.51007 7.65792 2.99349 8.04761 2.60355C8.43885 2.21438 8.95843 2.00049 9.51145 2.00049H10.4861C11.043 2.00049 11.5843 2.2275 11.9725 2.62208C12.3598 3.01897 12.5737 3.56335 12.5574 4.11544C12.5589 4.23976 12.6001 4.38338 12.6748 4.50925C12.7985 4.71773 12.9937 4.86444 13.2255 4.92467C13.4573 4.98181 13.7 4.95093 13.9061 4.8297C14.9017 4.26524 16.1687 4.60345 16.7373 5.5841L17.2219 6.41726C17.2344 6.43966 17.2452 6.46128 17.2546 6.48367C17.7695 7.44965 17.4257 8.6658 16.469 9.22099C16.3298 9.30052 16.217 9.41171 16.1392 9.54607C16.0186 9.75378 15.9852 10.0009 16.0459 10.2279C16.1081 10.4595 16.2566 10.6518 16.4659 10.7707C16.938 11.0402 17.2904 11.4942 17.4311 12.0185C17.5719 12.5421 17.4949 13.1104 17.2204 13.5791L16.7039 14.4331C16.1353 15.4029 14.8682 15.7388 13.8828 15.1736C13.7513 15.0987 13.5996 15.0578 13.4487 15.0539H13.4441C13.2193 15.0539 12.9883 15.1489 12.8203 15.3149C12.6499 15.484 12.5566 15.7095 12.5581 15.9488C12.5527 17.0832 11.6232 18.0005 10.4861 18.0005Z" fill="#1786F9"/>
</g>
<path fill-rule="evenodd" clip-rule="evenodd" d="M10.0018 8.54387C9.19289 8.54387 8.53486 9.19789 8.53486 10.0009C8.53486 10.804 9.19289 11.4565 10.0018 11.4565C10.8107 11.4565 11.4688 10.804 11.4688 10.0009C11.4688 9.19789 10.8107 8.54387 10.0018 8.54387ZM10.0018 12.6147C8.54966 12.6147 7.36816 11.4426 7.36816 10.0009C7.36816 8.55931 8.54966 7.38562 10.0018 7.38562C11.454 7.38562 12.6355 8.55931 12.6355 10.0009C12.6355 11.4426 11.454 12.6147 10.0018 12.6147Z" fill="#1786F9"/>
</svg>
