<svg width="14" height="14" viewBox="0 0 14 14" fill="none" xmlns="http://www.w3.org/2000/svg">
<path d="M10.3006 9.71658L7.82549 12.1917C7.60673 12.4102 7.31016 12.533 7.00094 12.533C6.69173 12.533 6.39516 12.4102 6.1764 12.1917L3.70074 9.71658C3.04812 9.06393 2.60368 8.23241 2.42364 7.32717C2.24359 6.42193 2.33602 5.48363 2.68924 4.63092C3.04245 3.77822 3.64059 3.0494 4.40802 2.53663C5.17544 2.02386 6.07768 1.75017 7.00065 1.75017C7.92362 1.75017 8.82586 2.02386 9.59329 2.53663C10.3607 3.0494 10.9589 3.77822 11.3121 4.63092C11.6653 5.48363 11.7577 6.42193 11.5777 7.32717C11.3976 8.23241 10.9532 9.06393 10.3006 9.71658Z" fill="#1786F9" stroke="#1786F9" stroke-width="1.98491" stroke-linecap="round" stroke-linejoin="round"/>
<path d="M7 8.16669C7.9665 8.16669 8.75 7.38319 8.75 6.41669C8.75 5.45019 7.9665 4.66669 7 4.66669C6.0335 4.66669 5.25 5.45019 5.25 6.41669C5.25 7.38319 6.0335 8.16669 7 8.16669Z" fill="#E3E4E8"/>
</svg>
