<svg width="24" height="25" viewBox="0 0 24 25" fill="none" xmlns="http://www.w3.org/2000/svg">
<g clip-path="url(#clip0_4151_19306)">
<path d="M6.34298 20.812L6.73535 21.0083C8.37025 21.99 10.2013 22.4482 12.0324 22.4482C17.7873 22.4482 22.4958 17.736 22.4958 11.9767C22.4958 9.22796 21.3841 6.54465 19.4222 4.58125C17.4603 2.61786 14.8445 1.50526 12.0324 1.50526C6.27758 1.50526 1.56907 6.21742 1.63446 12.0422C1.63446 14.0056 2.22303 15.9035 3.20397 17.5397L3.46555 17.9323L2.41921 21.7937L6.34298 20.812Z" fill="#00E676"/>
<path d="M20.5344 3.53411C18.3109 1.24348 15.2373 0 12.0983 0C5.42787 0 0.065396 5.43206 0.130792 12.0422C0.130792 14.1365 0.719356 16.1653 1.7003 17.9978L0 24.2152L6.34342 22.5791C8.10911 23.5608 10.071 24.0189 12.0329 24.0189C18.6379 24.0189 24.0003 18.5868 24.0003 11.9767C24.0003 8.76984 22.7578 5.7593 20.5344 3.53411ZM12.0983 21.99C10.3326 21.99 8.56688 21.5319 7.06277 20.6157L6.6704 20.4193L2.87743 21.401L3.85837 17.6706L3.59678 17.2779C0.719356 12.6312 2.09267 6.47921 6.80119 3.59956C11.5097 0.719912 17.5915 2.09429 20.469 6.80644C23.3464 11.5186 21.9731 17.6051 17.2646 20.4848C15.7604 21.4665 13.9294 21.99 12.0983 21.99ZM17.8531 14.7255L17.1338 14.3982C17.1338 14.3982 16.0874 13.9401 15.4335 13.6129C15.3681 13.6129 15.3027 13.5474 15.2373 13.5474C15.0411 13.5474 14.9103 13.6129 14.7795 13.6783C14.7795 13.6783 14.7141 13.7438 13.7986 14.7909C13.7332 14.9218 13.6024 14.9873 13.4716 14.9873H13.4062C13.3408 14.9873 13.21 14.9218 13.1446 14.8564L12.8176 14.7255C12.0983 14.3982 11.4443 14.0056 10.9211 13.482C10.7903 13.3511 10.5942 13.2202 10.4634 13.0893C10.0056 12.6312 9.54782 12.1076 9.22084 11.5186L9.15545 11.3877C9.09005 11.3223 9.09005 11.2568 9.02465 11.1259C9.02465 10.995 9.02465 10.8641 9.09005 10.7987C9.09005 10.7987 9.35163 10.4714 9.54782 10.2751C9.67861 10.1442 9.74401 9.94787 9.8748 9.81698C10.0056 9.62064 10.071 9.35886 10.0056 9.16252C9.9402 8.83528 9.15545 7.06823 8.95926 6.67555C8.82847 6.47921 8.69767 6.41376 8.50149 6.34831H8.3053C8.17451 6.34831 7.97832 6.34831 7.78213 6.34831C7.65134 6.34831 7.52054 6.41376 7.38975 6.41376L7.32436 6.47921C7.19356 6.54465 7.06277 6.67555 6.93198 6.74099C6.80119 6.87189 6.73579 7.00278 6.605 7.13367C6.14723 7.72269 5.88564 8.4426 5.88564 9.16252C5.88564 9.68609 6.01644 10.2097 6.21262 10.6678L6.27802 10.8641C6.86658 12.1076 7.65134 13.2202 8.69767 14.2019L8.95926 14.4637C9.15545 14.66 9.35163 14.7909 9.48243 14.9873C10.8557 16.1653 12.4252 17.0161 14.1909 17.4742C14.3871 17.5397 14.6487 17.5397 14.8449 17.6051C15.0411 17.6051 15.3027 17.6051 15.4989 17.6051C15.8258 17.6051 16.2182 17.4742 16.4798 17.3433C16.676 17.2124 16.8068 17.2124 16.9376 17.0815L17.0684 16.9507C17.1992 16.8198 17.33 16.7543 17.4607 16.6234C17.5915 16.4925 17.7223 16.3616 17.7877 16.2307C17.9185 15.969 17.9839 15.6417 18.0493 15.3145C18.0493 15.1836 18.0493 14.9873 18.0493 14.8564C18.0493 14.8564 17.9839 14.7909 17.8531 14.7255Z" fill="white"/>
</g>
<defs>
<clipPath id="clip0_4151_19306">
<rect width="24" height="24.3" fill="white"/>
</clipPath>
</defs>
</svg>
