<svg width="20" height="20" viewBox="0 0 20 20" fill="none" xmlns="http://www.w3.org/2000/svg">
<g clip-path="url(#clip0_4149_14100)">
<path d="M3.33333 10H16.6667C16.8877 10 17.0996 10.0878 17.2559 10.2441C17.4122 10.4004 17.5 10.6123 17.5 10.8333V13.3333C17.5 14.2174 17.1488 15.0652 16.5237 15.6904C15.8986 16.3155 15.0507 16.6667 14.1667 16.6667H5.83333C4.94928 16.6667 4.10143 16.3155 3.47631 15.6904C2.85119 15.0652 2.5 14.2174 2.5 13.3333V10.8333C2.5 10.6123 2.5878 10.4004 2.74408 10.2441C2.90036 10.0878 3.11232 10 3.33333 10V10Z" stroke="#E3E4E8" stroke-width="1.5" stroke-linecap="round" stroke-linejoin="round"/>
<path d="M5 10V4.16667C5 3.72464 5.17559 3.30072 5.48816 2.98816C5.80072 2.67559 6.22464 2.5 6.66667 2.5H9.16667V4.375" stroke="#E3E4E8" stroke-width="1.5" stroke-linecap="round" stroke-linejoin="round"/>
<path d="M3.33301 17.5L4.16634 16.25" stroke="#E3E4E8" stroke-width="1.5" stroke-linecap="round" stroke-linejoin="round"/>
<path d="M16.6663 17.5L15.833 16.25" stroke="#E3E4E8" stroke-width="1.5" stroke-linecap="round" stroke-linejoin="round"/>
</g>
<defs>
<clipPath id="clip0_4149_14100">
<rect width="20" height="20" fill="white"/>
</clipPath>
</defs>
</svg>
