<svg width="20" height="20" viewBox="0 0 20 20" fill="none" xmlns="http://www.w3.org/2000/svg">
<path fill-rule="evenodd" clip-rule="evenodd" d="M13.0004 14.2013H7.03828C6.69641 14.2013 6.41895 13.92 6.41895 13.5734C6.41895 13.2269 6.69641 12.9456 7.03828 12.9456H13.0004C13.3423 12.9456 13.6197 13.2269 13.6197 13.5734C13.6197 13.92 13.3423 14.2013 13.0004 14.2013Z" fill="#1786F9"/>
<path fill-rule="evenodd" clip-rule="evenodd" d="M13.0004 10.6967H7.03828C6.69641 10.6967 6.41895 10.4154 6.41895 10.0689C6.41895 9.72231 6.69641 9.44104 7.03828 9.44104H13.0004C13.3423 9.44104 13.6197 9.72231 13.6197 10.0689C13.6197 10.4154 13.3423 10.6967 13.0004 10.6967Z" fill="#1786F9"/>
<path fill-rule="evenodd" clip-rule="evenodd" d="M9.3133 7.20024H7.03828C6.69641 7.20024 6.41895 6.91897 6.41895 6.57241C6.41895 6.22585 6.69641 5.94458 7.03828 5.94458H9.3133C9.65517 5.94458 9.93263 6.22585 9.93263 6.57241C9.93263 6.91897 9.65517 7.20024 9.3133 7.20024Z" fill="#1786F9"/>
<mask id="mask0_4155_9855" style="mask-type:luminance" maskUnits="userSpaceOnUse" x="2" y="1" width="16" height="18">
<path fill-rule="evenodd" clip-rule="evenodd" d="M2.5 1.66681H17.5V18.3335H2.5V1.66681Z" fill="white"/>
</mask>
<g mask="url(#mask0_4155_9855)">
<path fill-rule="evenodd" clip-rule="evenodd" d="M13.16 2.92229L6.81055 2.92564C4.88814 2.93736 3.73866 4.14279 3.73866 6.15102V13.8491C3.73866 15.8707 4.89887 17.0778 6.84028 17.0778L13.1897 17.0753C15.1121 17.0636 16.2616 15.8565 16.2616 13.8491V6.15102C16.2616 4.1294 15.1022 2.92229 13.16 2.92229ZM6.84111 18.3335C4.24487 18.3335 2.5 16.5312 2.5 13.8491V6.15102C2.5 3.44464 4.19037 1.68588 6.80643 1.66997L13.1591 1.66663H13.16C15.7562 1.66663 17.5002 3.46892 17.5002 6.15102V13.8491C17.5002 16.5546 15.8099 18.3142 13.1938 18.3309L6.84111 18.3335Z" fill="#1786F9"/>
</g>
</svg>
