<svg width="22" height="22" viewBox="0 0 22 22" fill="none" xmlns="http://www.w3.org/2000/svg">
<path d="M7.93023 8.95349C9.06049 8.95349 9.97674 8.03723 9.97674 6.90698C9.97674 5.77672 9.06049 4.86047 7.93023 4.86047C6.79998 4.86047 5.88372 5.77672 5.88372 6.90698C5.88372 8.03723 6.79998 8.95349 7.93023 8.95349Z" stroke="#16161A" stroke-width="1.5" stroke-linecap="round" stroke-linejoin="round"/>
<path d="M12.0233 0.767442H7.93023C2.81395 0.767442 0.767442 2.81395 0.767442 7.93023V14.0698C0.767442 19.186 2.81395 21.2326 7.93023 21.2326H14.0698C19.186 21.2326 21.2326 19.186 21.2326 14.0698V8.95349" stroke="#16161A" stroke-width="1.5" stroke-linecap="round" stroke-linejoin="round"/>
<path d="M14.8372 3.83721H20.4651" stroke="#16161A" stroke-width="1.5" stroke-linecap="round"/>
<path d="M17.6512 6.65116V1.02326" stroke="#16161A" stroke-width="1.5" stroke-linecap="round"/>
<path d="M1.45294 18.1116L6.49759 14.7246C7.30597 14.1823 8.47248 14.2437 9.19899 14.8679L9.53666 15.1646C10.3348 15.8502 11.6241 15.8502 12.4222 15.1646L16.679 11.5116C17.4771 10.826 18.7664 10.826 19.5646 11.5116L21.2325 12.9442" stroke="#16161A" stroke-width="1.5" stroke-linecap="round" stroke-linejoin="round"/>
</svg>
