<svg width="20" height="20" viewBox="0 0 20 20" fill="none" xmlns="http://www.w3.org/2000/svg">
<path d="M12.5003 18.9583H7.50033C2.97533 18.9583 1.04199 17.025 1.04199 12.5V7.49999C1.04199 2.97499 2.97533 1.04166 7.50033 1.04166H12.5003C17.0253 1.04166 18.9587 2.97499 18.9587 7.49999V12.5C18.9587 12.7 18.9587 12.9083 18.942 13.1C18.917 13.35 18.742 13.5667 18.5003 13.6417C18.2587 13.7167 17.992 13.6333 17.8337 13.4333C17.242 12.7083 16.367 12.2917 15.417 12.2917C14.7087 12.2917 14.017 12.5333 13.467 12.975C12.717 13.5667 12.292 14.45 12.292 15.4167C12.292 16.3583 12.7087 17.2417 13.4337 17.8333C13.6337 17.9917 13.7087 18.2583 13.642 18.5C13.567 18.7417 13.3587 18.9166 13.1003 18.9416C12.9087 18.9583 12.7003 18.9583 12.5003 18.9583ZM7.50033 2.29166C3.65866 2.29166 2.29199 3.65832 2.29199 7.49999V12.5C2.29199 16.3417 3.65866 17.7083 7.50033 17.7083H11.6837C11.267 17.0333 11.042 16.2417 11.042 15.4167C11.042 14.0667 11.642 12.825 12.692 12C14.092 10.8667 16.217 10.7667 17.7087 11.6833V7.49999C17.7087 3.65832 16.342 2.29166 12.5003 2.29166H7.50033Z" fill="#1786F9"/>
<path d="M17.8996 6.54999H2.09961C1.75794 6.54999 1.47461 6.26665 1.47461 5.92499C1.47461 5.58332 1.75794 5.29999 2.09961 5.29999H17.8996C18.2413 5.29999 18.5246 5.58332 18.5246 5.92499C18.5246 6.26665 18.2496 6.54999 17.8996 6.54999Z" fill="#1786F9"/>
<path d="M7.09961 6.43332C6.75794 6.43332 6.47461 6.14999 6.47461 5.80832V1.75833C6.47461 1.41666 6.75794 1.13333 7.09961 1.13333C7.44128 1.13333 7.72461 1.41666 7.72461 1.75833V5.80832C7.72461 6.14999 7.44128 6.43332 7.09961 6.43332Z" fill="#1786F9"/>
<path d="M12.9004 6.05836C12.5587 6.05836 12.2754 5.77503 12.2754 5.43336V1.75833C12.2754 1.41666 12.5587 1.13333 12.9004 1.13333C13.2421 1.13333 13.5254 1.41666 13.5254 1.75833V5.43336C13.5254 5.78336 13.2504 6.05836 12.9004 6.05836Z" fill="#1786F9"/>
<path d="M15.417 19.7917C14.4003 19.7917 13.417 19.4417 12.642 18.8C11.6253 17.975 11.042 16.7417 11.042 15.4167C11.042 14.0667 11.642 12.825 12.692 12C13.4587 11.3833 14.4253 11.0417 15.417 11.0417C16.742 11.0417 17.9753 11.625 18.8003 12.65C19.4337 13.4167 19.792 14.4 19.792 15.4167C19.792 16.6583 19.2503 17.8583 18.3087 18.7C17.492 19.4083 16.467 19.7917 15.417 19.7917ZM15.417 12.2917C14.7087 12.2917 14.017 12.5333 13.467 12.975C12.717 13.5667 12.292 14.45 12.292 15.4167C12.292 16.3583 12.7087 17.2417 13.4337 17.8333C14.567 18.775 16.3253 18.7667 17.4837 17.7583C18.1503 17.1583 18.542 16.3 18.542 15.4167C18.542 14.6917 18.292 13.9917 17.8337 13.4417C17.242 12.7083 16.3587 12.2917 15.417 12.2917Z" fill="#1786F9"/>
<path d="M14.483 16.9833C14.2747 16.9833 14.0663 16.875 13.9496 16.6834C13.7746 16.3834 13.8663 16 14.1663 15.825L15.033 15.3083V14.2583C15.033 13.9167 15.3163 13.6333 15.658 13.6333C15.9997 13.6333 16.283 13.9167 16.283 14.2583V15.6667C16.283 15.8833 16.1663 16.0917 15.983 16.2L14.808 16.9C14.6996 16.95 14.5913 16.9833 14.483 16.9833Z" fill="#1786F9"/>
</svg>
