<svg width="20" height="20" viewBox="0 0 20 20" fill="none" xmlns="http://www.w3.org/2000/svg">
<path d="M9.99983 13.3333C9.89016 13.334 9.78144 13.313 9.67991 13.2715C9.57838 13.23 9.48603 13.1689 9.40816 13.0917L4.40816 8.09168C4.25124 7.93476 4.16309 7.72193 4.16309 7.50001C4.16309 7.27809 4.25124 7.06527 4.40816 6.90835C4.56508 6.75143 4.77791 6.66327 4.99983 6.66327C5.22175 6.66327 5.43458 6.75143 5.5915 6.90835L9.99983 11.325L14.4082 6.91668C14.5676 6.78016 14.7726 6.70882 14.9824 6.71692C15.1921 6.72502 15.3911 6.81196 15.5395 6.96038C15.6879 7.10879 15.7748 7.30774 15.7829 7.51747C15.791 7.7272 15.7197 7.93226 15.5832 8.09168L10.5832 13.0917C10.4279 13.2456 10.2184 13.3324 9.99983 13.3333Z" fill="#74778B"/>
</svg>
