<svg width="20" height="20" viewBox="0 0 20 20" fill="none" xmlns="http://www.w3.org/2000/svg">
<path d="M14.167 2.02502H5.83366C3.33366 2.02502 1.66699 3.69169 1.66699 6.19169V11.1917C1.66699 13.6917 3.33366 15.3584 5.83366 15.3584V17.1334C5.83366 17.8 6.57533 18.2 7.12533 17.825L10.8337 15.3584H14.167C16.667 15.3584 18.3337 13.6917 18.3337 11.1917V6.19169C18.3337 3.69169 16.667 2.02502 14.167 2.02502ZM10.0003 12.1667C9.65033 12.1667 9.37533 11.8834 9.37533 11.5417C9.37533 11.2 9.65033 10.9167 10.0003 10.9167C10.3503 10.9167 10.6253 11.2 10.6253 11.5417C10.6253 11.8834 10.3503 12.1667 10.0003 12.1667ZM11.0503 8.70836C10.7253 8.92502 10.6253 9.06669 10.6253 9.30002V9.47502C10.6253 9.81669 10.342 10.1 10.0003 10.1C9.65866 10.1 9.37533 9.81669 9.37533 9.47502V9.30002C9.37533 8.33336 10.0837 7.85836 10.3503 7.67502C10.6587 7.46669 10.7587 7.32502 10.7587 7.10836C10.7587 6.69169 10.417 6.35002 10.0003 6.35002C9.58366 6.35002 9.24199 6.69169 9.24199 7.10836C9.24199 7.45002 8.95866 7.73336 8.61699 7.73336C8.27533 7.73336 7.99199 7.45002 7.99199 7.10836C7.99199 6.00002 8.89199 5.10002 10.0003 5.10002C11.1087 5.10002 12.0087 6.00002 12.0087 7.10836C12.0087 8.05836 11.3087 8.53336 11.0503 8.70836Z" fill="#74778B"/>
</svg>
