<svg width="24" height="20" viewBox="0 0 24 20" fill="none" xmlns="http://www.w3.org/2000/svg">
<path d="M13.5766 9.85389L15.9162 12.5229L19.0625 14.5293L19.6098 9.87074L19.0625 5.31729L15.8559 7.07981L13.5766 9.85389Z" fill="#00832D"/>
<path d="M0 14.0957V18.0655C0 18.9719 0.737153 19.7078 1.64558 19.7078H5.62325L6.44692 16.7084L5.62325 14.0957L2.89431 13.2737L0 14.0957Z" fill="#0066DA"/>
<path d="M5.62325 0L0 5.61208L2.89448 6.43219L5.62325 5.61208L6.43195 3.035L5.62325 0Z" fill="#E94235"/>
<path d="M0 14.0975H5.62325V5.61202H0V14.0975Z" fill="#2684FC"/>
<path d="M22.6548 2.37621L19.0627 5.3174V14.5292L22.6698 17.4819C23.2097 17.904 23.9996 17.5192 23.9996 16.8343V3.01062C23.9996 2.31802 23.1909 1.93515 22.6548 2.37621Z" fill="#00AC47"/>
<path d="M13.5761 9.85391V14.0957H5.62282V19.7078H17.4164C18.3248 19.7078 19.062 18.9719 19.062 18.0655V14.5293L13.5761 9.85391Z" fill="#00AC47"/>
<path d="M17.4164 0H5.62282V5.61208H13.5761V9.85388L19.062 5.31728V1.64231C19.062 0.735688 18.3248 0 17.4164 0Z" fill="#FFBA00"/>
</svg>
