<svg width="20" height="20" viewBox="0 0 20 20" fill="none" xmlns="http://www.w3.org/2000/svg">
<path d="M17.3834 6.97501L11.6084 2.35834C10.7167 1.64167 9.27506 1.64167 8.39172 2.35001L2.61672 6.97501C1.96672 7.49167 1.55006 8.58334 1.69172 9.40001L2.80006 16.0333C3.00006 17.2167 4.13339 18.175 5.33339 18.175H14.6667C15.8584 18.175 17.0001 17.2083 17.2001 16.0333L18.3084 9.40001C18.4417 8.58334 18.0251 7.49167 17.3834 6.97501ZM10.0001 12.9167C8.85006 12.9167 7.91672 11.9833 7.91672 10.8333C7.91672 9.68334 8.85006 8.75001 10.0001 8.75001C11.1501 8.75001 12.0834 9.68334 12.0834 10.8333C12.0834 11.9833 11.1501 12.9167 10.0001 12.9167Z" fill="#16161A"/>
</svg>
