<svg width="20" height="20" viewBox="0 0 20 20" fill="none" xmlns="http://www.w3.org/2000/svg">
<path fill-rule="evenodd" clip-rule="evenodd" d="M10 14.6916C9.655 14.6916 9.375 14.4079 9.375 14.0583V11.9163C9.375 11.5668 9.655 11.2831 10 11.2831C10.345 11.2831 10.625 11.5668 10.625 11.9163V14.0583C10.625 14.4079 10.345 14.6916 10 14.6916Z" fill="#1786F9"/>
<mask id="mask0_4155_9125" style="mask-type:luminance" maskUnits="userSpaceOnUse" x="1" y="3" width="18" height="10">
<path fill-rule="evenodd" clip-rule="evenodd" d="M1.66699 3.84497H18.3337V12.5506H1.66699V3.84497Z" fill="white"/>
</mask>
<g mask="url(#mask0_4155_9125)">
<path fill-rule="evenodd" clip-rule="evenodd" d="M2.91699 9.59726C4.898 10.6873 7.39594 11.2842 9.9956 11.2842C12.6003 11.2842 15.1007 10.6873 17.0825 9.59726V7.06264C17.0825 5.98615 16.2229 5.11145 15.1649 5.11145H4.84297C3.78077 5.11145 2.91699 5.98277 2.91699 7.0542V9.59726ZM9.99624 12.5506C7.04057 12.5506 4.19161 11.8262 1.97632 10.5125C1.78455 10.3993 1.66699 10.1916 1.66699 9.96621V7.05419C1.66699 5.28452 3.09189 3.84497 4.84361 3.84497H15.1655C16.9131 3.84497 18.3338 5.2879 18.3338 7.06263V9.96621C18.3338 10.1916 18.2154 10.3993 18.0245 10.5125C15.8092 11.8262 12.9578 12.5506 9.99624 12.5506Z" fill="#1786F9"/>
</g>
<mask id="mask1_4155_9125" style="mask-type:luminance" maskUnits="userSpaceOnUse" x="6" y="1" width="8" height="5">
<path fill-rule="evenodd" clip-rule="evenodd" d="M6.45703 1.66681H13.544V5.10813H6.45703V1.66681Z" fill="white"/>
</mask>
<g mask="url(#mask1_4155_9125)">
<path fill-rule="evenodd" clip-rule="evenodd" d="M12.9187 5.10815C12.5735 5.10815 12.2933 4.82447 12.2933 4.47492V4.1659C12.2933 3.48623 11.7472 2.93321 11.0761 2.93321H8.92496C8.25378 2.93321 7.70767 3.48623 7.70767 4.1659V4.47492C7.70767 4.82447 7.42753 5.10815 7.08235 5.10815C6.73717 5.10815 6.45703 4.82447 6.45703 4.47492V4.1659C6.45703 2.78799 7.56426 1.66675 8.92496 1.66675H11.0761C12.4367 1.66675 13.544 2.78799 13.544 4.1659V4.47492C13.544 4.82447 13.2638 5.10815 12.9187 5.10815Z" fill="#1786F9"/>
</g>
<path fill-rule="evenodd" clip-rule="evenodd" d="M14.8358 18.3335H5.16424C3.4342 18.3335 1.97762 16.9649 1.84672 15.2171L1.6883 13.0988C1.66246 12.7501 1.92092 12.4453 2.26527 12.4191C2.61128 12.4064 2.90976 12.6538 2.93644 13.0034L3.09402 15.1209C3.17573 16.2117 4.08453 17.067 5.16424 17.067H14.8358C15.9156 17.067 16.8252 16.2117 16.9061 15.1209L17.0645 13.0034C17.0912 12.6538 17.3972 12.4056 17.7357 12.4191C18.08 12.4453 18.3376 12.7501 18.3118 13.0988L18.1534 15.2171C18.0225 16.9649 16.5659 18.3335 14.8358 18.3335Z" fill="#1786F9"/>
</svg>
