<svg width="20" height="20" viewBox="0 0 20 20" fill="none" xmlns="http://www.w3.org/2000/svg">
<path fill-rule="evenodd" clip-rule="evenodd" d="M8.13399 12.3613C7.97399 12.3613 7.81399 12.3015 7.69233 12.1809C7.07733 11.5764 6.73816 10.7727 6.73816 9.91808C6.73816 8.14653 8.20149 6.70551 9.99983 6.70551C10.8648 6.70551 11.7048 7.04915 12.304 7.64869C12.5457 7.89146 12.5432 8.28022 12.2965 8.51806C12.0507 8.75755 11.6557 8.75345 11.4132 8.51232C11.0473 8.14571 10.5323 7.93575 9.99983 7.93575C8.89066 7.93575 7.98816 8.82481 7.98816 9.91808C7.98816 10.4438 8.19733 10.9392 8.57566 11.3115C8.81983 11.5518 8.81983 11.9406 8.57649 12.1809C8.45399 12.3015 8.29399 12.3613 8.13399 12.3613Z" fill="#74778B"/>
<path fill-rule="evenodd" clip-rule="evenodd" d="M10.4727 13.0782C10.1769 13.0782 9.91356 12.8698 9.85856 12.5729C9.7969 12.2391 10.0219 11.9184 10.3619 11.8578C11.1786 11.7118 11.8252 11.0737 11.9719 10.2691C12.0336 9.93529 12.3586 9.71549 12.6977 9.7729C13.0377 9.83277 13.2636 10.1526 13.2027 10.4873C12.9636 11.7938 11.9119 12.8305 10.5852 13.0683C10.5477 13.0749 10.5094 13.0782 10.4727 13.0782Z" fill="#74778B"/>
<mask id="mask0_0_83" style="mask-type:luminance" maskUnits="userSpaceOnUse" x="1" y="3" width="15" height="12">
<path fill-rule="evenodd" clip-rule="evenodd" d="M1.66663 3.34552H15.0718V14.9083H1.66663V3.34552Z" fill="white"/>
</mask>
<g mask="url(#mask0_0_83)">
<path fill-rule="evenodd" clip-rule="evenodd" d="M5.54525 14.9083C5.41025 14.9083 5.27442 14.8648 5.15942 14.7771C3.75025 13.6879 2.55942 12.091 1.71775 10.1604C1.64942 10.0045 1.64942 9.82901 1.71775 9.674C2.56859 7.73513 3.76692 6.13008 5.18359 5.03352C8.07192 2.78381 11.9169 2.77643 14.8344 5.04992C15.1053 5.2607 15.1511 5.64782 14.9369 5.91437C14.7219 6.17929 14.3303 6.22604 14.0586 6.01443C11.5869 4.08869 8.40275 4.09525 5.95775 5.99967C4.76109 6.92645 3.73359 8.27644 2.97525 9.91841C3.72609 11.5505 4.74442 12.8923 5.93192 13.8093C6.20359 14.0192 6.25025 14.4063 6.03692 14.6729C5.91359 14.8271 5.73025 14.9083 5.54525 14.9083Z" fill="#74778B"/>
</g>
<mask id="mask1_0_83" style="mask-type:luminance" maskUnits="userSpaceOnUse" x="7" y="6" width="12" height="11">
<path fill-rule="evenodd" clip-rule="evenodd" d="M7.26453 6.72189H18.3333V16.5214H7.26453V6.72189Z" fill="white"/>
</mask>
<g mask="url(#mask1_0_83)">
<path fill-rule="evenodd" clip-rule="evenodd" d="M10.0001 16.5214C9.21922 16.5214 8.44255 16.3967 7.69255 16.1515C7.36505 16.044 7.18755 15.6955 7.29672 15.3731C7.40589 15.05 7.75839 14.8786 8.08755 14.9836C8.71005 15.1878 9.35339 15.2911 10.0001 15.2911C12.8567 15.2911 15.4676 13.2883 17.0251 9.91659C16.6451 9.09725 16.2026 8.355 15.7076 7.70708C15.5001 7.4356 15.5551 7.04931 15.8309 6.84509C16.1059 6.64087 16.4984 6.69664 16.7059 6.96729C17.3092 7.75547 17.8392 8.66667 18.2817 9.67219C18.3509 9.82802 18.3509 10.0052 18.2817 10.1602C16.5351 14.1437 13.4392 16.5214 10.0001 16.5214Z" fill="#74778B"/>
</g>
<mask id="mask2_0_83" style="mask-type:luminance" maskUnits="userSpaceOnUse" x="2" y="2" width="16" height="16">
<path fill-rule="evenodd" clip-rule="evenodd" d="M2.80298 2.83368H17.1976V17.0003H2.80298V2.83368Z" fill="white"/>
</mask>
<g mask="url(#mask2_0_83)">
<path fill-rule="evenodd" clip-rule="evenodd" d="M3.42777 17.0004C3.26777 17.0004 3.10777 16.9405 2.9861 16.8199C2.74194 16.5796 2.74194 16.1908 2.9861 15.9505L16.1311 3.0133C16.3753 2.77299 16.7703 2.77299 17.0144 3.0133C17.2586 3.25361 17.2586 3.64318 17.0144 3.88349L3.86944 16.8199C3.74777 16.9405 3.58777 17.0004 3.42777 17.0004Z" fill="#74778B"/>
</g>
</svg>
