<svg width="14" height="14" viewBox="0 0 14 14" fill="none" xmlns="http://www.w3.org/2000/svg">
<path d="M4.66675 3.35417C4.42758 3.35417 4.22925 3.15584 4.22925 2.91667V1.16667C4.22925 0.927505 4.42758 0.729172 4.66675 0.729172C4.90591 0.729172 5.10425 0.927505 5.10425 1.16667V2.91667C5.10425 3.15584 4.90591 3.35417 4.66675 3.35417Z" fill="#1786F9"/>
<path d="M9.33325 3.35417C9.09409 3.35417 8.89575 3.15584 8.89575 2.91667V1.16667C8.89575 0.927505 9.09409 0.729172 9.33325 0.729172C9.57242 0.729172 9.77075 0.927505 9.77075 1.16667V2.91667C9.77075 3.15584 9.57242 3.35417 9.33325 3.35417Z" fill="#1786F9"/>
<path d="M4.95833 8.45834C4.8825 8.45834 4.80667 8.44084 4.73667 8.41168C4.66083 8.38251 4.6025 8.34167 4.54417 8.28917C4.43917 8.17833 4.375 8.0325 4.375 7.875C4.375 7.79917 4.3925 7.72333 4.42167 7.65333C4.45083 7.58333 4.49167 7.51918 4.54417 7.46084C4.6025 7.40834 4.66083 7.3675 4.73667 7.33833C4.94667 7.25083 5.20917 7.29751 5.3725 7.46084C5.4775 7.57168 5.54167 7.72334 5.54167 7.875C5.54167 7.91 5.53583 7.95084 5.53 7.99168C5.52417 8.02668 5.5125 8.06167 5.495 8.09667C5.48333 8.13167 5.46583 8.16667 5.4425 8.20167C5.425 8.23084 5.39583 8.26 5.3725 8.28917C5.26167 8.39417 5.11 8.45834 4.95833 8.45834Z" fill="#1786F9"/>
<path d="M7.00008 8.45834C6.92425 8.45834 6.84841 8.44084 6.77841 8.41168C6.70258 8.38251 6.64425 8.34166 6.58592 8.28916C6.48092 8.17833 6.41675 8.0325 6.41675 7.875C6.41675 7.79917 6.43425 7.72333 6.46342 7.65333C6.49258 7.58333 6.53342 7.51917 6.58592 7.46084C6.64425 7.40834 6.70258 7.36749 6.77841 7.33833C6.98841 7.24499 7.25091 7.29751 7.41425 7.46084C7.51925 7.57167 7.58342 7.72334 7.58342 7.875C7.58342 7.91 7.57758 7.95084 7.57175 7.99168C7.56591 8.02668 7.55425 8.06167 7.53675 8.09667C7.52508 8.13167 7.50758 8.16667 7.48425 8.20167C7.46675 8.23083 7.43758 8.26 7.41425 8.28916C7.30341 8.39416 7.15175 8.45834 7.00008 8.45834Z" fill="#1786F9"/>
<path d="M9.04159 8.45834C8.96575 8.45834 8.88992 8.44084 8.81992 8.41168C8.74408 8.38251 8.68575 8.34166 8.62742 8.28916C8.60409 8.26 8.58075 8.23083 8.55742 8.20167C8.53408 8.16667 8.51659 8.13167 8.50492 8.09667C8.48742 8.06167 8.47575 8.02668 8.46992 7.99168C8.46409 7.95084 8.45825 7.91 8.45825 7.875C8.45825 7.72334 8.52242 7.57167 8.62742 7.46084C8.68575 7.40834 8.74408 7.36749 8.81992 7.33833C9.03575 7.24499 9.29242 7.29751 9.45575 7.46084C9.56075 7.57167 9.62492 7.72334 9.62492 7.875C9.62492 7.91 9.61909 7.95084 9.61325 7.99168C9.60742 8.02668 9.59575 8.06167 9.57825 8.09667C9.56658 8.13167 9.54909 8.16667 9.52575 8.20167C9.50825 8.23083 9.47909 8.26 9.45575 8.28916C9.34492 8.39416 9.19325 8.45834 9.04159 8.45834Z" fill="#1786F9"/>
<path d="M4.95833 10.5C4.8825 10.5 4.80667 10.4825 4.73667 10.4533C4.66667 10.4242 4.6025 10.3833 4.54417 10.3308C4.43917 10.22 4.375 10.0683 4.375 9.91667C4.375 9.84084 4.3925 9.765 4.42167 9.695C4.45083 9.61917 4.49167 9.55501 4.54417 9.50251C4.76 9.28668 5.15667 9.28668 5.3725 9.50251C5.4775 9.61335 5.54167 9.76501 5.54167 9.91667C5.54167 10.0683 5.4775 10.22 5.3725 10.3308C5.26167 10.4358 5.11 10.5 4.95833 10.5Z" fill="#1786F9"/>
<path d="M7.00008 10.5C6.84841 10.5 6.69675 10.4358 6.58592 10.3308C6.48092 10.22 6.41675 10.0683 6.41675 9.91667C6.41675 9.84084 6.43425 9.765 6.46342 9.695C6.49258 9.61917 6.53342 9.55501 6.58592 9.50251C6.80175 9.28668 7.19841 9.28668 7.41425 9.50251C7.46675 9.55501 7.50758 9.61917 7.53675 9.695C7.56591 9.765 7.58342 9.84084 7.58342 9.91667C7.58342 10.0683 7.51925 10.22 7.41425 10.3308C7.30341 10.4358 7.15175 10.5 7.00008 10.5Z" fill="#1786F9"/>
<path d="M9.04159 10.5C8.88992 10.5 8.73825 10.4359 8.62742 10.3309C8.57492 10.2784 8.53409 10.2142 8.50492 10.1384C8.47575 10.0684 8.45825 9.99253 8.45825 9.91669C8.45825 9.84086 8.47575 9.76502 8.50492 9.69502C8.53409 9.61919 8.57492 9.55503 8.62742 9.50253C8.76159 9.36836 8.96575 9.30419 9.15242 9.34502C9.19325 9.35085 9.22825 9.36252 9.26325 9.38002C9.29825 9.39168 9.33325 9.4092 9.36825 9.43253C9.39742 9.45003 9.42659 9.4792 9.45575 9.50253C9.56075 9.61336 9.62492 9.76503 9.62492 9.91669C9.62492 10.0684 9.56075 10.22 9.45575 10.3309C9.34492 10.4359 9.19325 10.5 9.04159 10.5Z" fill="#1786F9"/>
<path d="M11.9584 5.73997H2.04175C1.80258 5.73997 1.60425 5.54164 1.60425 5.30247C1.60425 5.06331 1.80258 4.86497 2.04175 4.86497H11.9584C12.1976 4.86497 12.3959 5.06331 12.3959 5.30247C12.3959 5.54164 12.1976 5.73997 11.9584 5.73997Z" fill="#1786F9"/>
<path d="M9.33333 13.2708H4.66667C2.5375 13.2708 1.3125 12.0458 1.3125 9.91667V4.95834C1.3125 2.82917 2.5375 1.60417 4.66667 1.60417H9.33333C11.4625 1.60417 12.6875 2.82917 12.6875 4.95834V9.91667C12.6875 12.0458 11.4625 13.2708 9.33333 13.2708ZM4.66667 2.47917C2.99833 2.47917 2.1875 3.29001 2.1875 4.95834V9.91667C2.1875 11.585 2.99833 12.3958 4.66667 12.3958H9.33333C11.0017 12.3958 11.8125 11.585 11.8125 9.91667V4.95834C11.8125 3.29001 11.0017 2.47917 9.33333 2.47917H4.66667Z" fill="#1786F9"/>
</svg>
