<svg width="16" height="16" viewBox="0 0 16 16" fill="none" xmlns="http://www.w3.org/2000/svg">
<path d="M8.00045 10.6667C7.91271 10.6672 7.82574 10.6504 7.74451 10.6172C7.66329 10.584 7.58941 10.5351 7.52712 10.4734L3.52712 6.47336C3.40158 6.34782 3.33105 6.17756 3.33105 6.00002C3.33105 5.82249 3.40158 5.65222 3.52712 5.52669C3.65265 5.40115 3.82291 5.33063 4.00045 5.33063C4.17798 5.33063 4.34825 5.40115 4.47378 5.52669L8.00045 9.06002L11.5271 5.53336C11.6547 5.42414 11.8187 5.36707 11.9865 5.37355C12.1543 5.38003 12.3134 5.44958 12.4322 5.56831C12.5509 5.68704 12.6204 5.8462 12.6269 6.01399C12.6334 6.18177 12.5763 6.34582 12.4671 6.47336L8.46712 10.4734C8.34294 10.5965 8.17534 10.666 8.00045 10.6667Z" fill="#74778B"/>
</svg>
