<svg width="91" height="99" viewBox="0 0 91 99" fill="none" xmlns="http://www.w3.org/2000/svg">
<path d="M6.5092 98.5699L0 77.924H3.55569L9.00391 95.2149L14.5238 77.924H18.0795L11.5703 98.5699H6.5092Z" fill="#E3E4E8"/>
<path d="M25.7444 99C24.1769 99 22.8005 98.6607 21.6153 97.9821C20.43 97.3034 19.5029 96.3619 18.8338 95.1576C18.1743 93.9532 17.8445 92.5673 17.8445 90.9997C17.8445 89.3079 18.1695 87.8407 18.8195 86.5981C19.4694 85.346 20.3727 84.3758 21.5292 83.6876C22.6858 82.9994 24.024 82.6553 25.5437 82.6553C27.1495 82.6553 28.5116 83.0329 29.6299 83.788C30.7578 84.5335 31.5941 85.5897 32.1389 86.9566C32.6838 88.3234 32.8893 89.934 32.7555 91.7883H29.3288V90.5266C29.3192 88.8443 29.0229 87.6161 28.4399 86.8419C27.8568 86.0676 26.9392 85.6805 25.6871 85.6805C24.2725 85.6805 23.2211 86.1202 22.5329 86.9996C21.8447 87.8694 21.5006 89.1454 21.5006 90.8277C21.5006 92.3952 21.8447 93.6091 22.5329 94.4694C23.2211 95.3296 24.2247 95.7598 25.5437 95.7598C26.3944 95.7598 27.1256 95.5734 27.7373 95.2006C28.3586 94.8183 28.8366 94.2687 29.1711 93.5518L32.5834 94.5841C31.9908 95.9796 31.0732 97.0645 29.8306 97.8387C28.5976 98.6129 27.2355 99 25.7444 99ZM20.4109 91.7883V89.1789H31.0636V91.7883H20.4109Z" fill="#E3E4E8"/>
<path d="M36.1337 98.5699V83.0855H39.1876V86.8562L38.8148 86.3687C39.006 85.8526 39.2593 85.3842 39.5747 84.9637C39.8997 84.5335 40.2868 84.1799 40.736 83.9027C41.1184 83.6446 41.5389 83.4439 41.9977 83.3005C42.4661 83.1476 42.944 83.0568 43.4315 83.0281C43.9189 82.9899 44.3921 83.009 44.8509 83.0855V86.3114C44.3921 86.1776 43.8616 86.1345 43.2594 86.1823C42.6668 86.2301 42.1315 86.3974 41.6536 86.6842C41.1757 86.9422 40.7838 87.272 40.478 87.6734C40.1817 88.0749 39.9618 88.5337 39.8184 89.0498C39.6751 89.5564 39.6034 90.106 39.6034 90.6986V98.5699H36.1337Z" fill="#E3E4E8"/>
<path d="M56.8417 98.5699C55.8189 98.7611 54.8153 98.8423 53.8308 98.8136C52.8559 98.7945 51.9813 98.6177 51.2071 98.2831C50.4329 97.939 49.845 97.399 49.4436 96.663C49.0899 95.9939 48.9035 95.3105 48.8844 94.6128C48.8653 93.915 48.8557 93.1264 48.8557 92.2471V78.7842H52.2967V92.0464C52.2967 92.6676 52.3015 93.2125 52.3111 93.6808C52.3302 94.1492 52.4305 94.5315 52.6121 94.8278C52.9562 95.4013 53.5058 95.7215 54.2609 95.7884C55.0161 95.8553 55.8763 95.8171 56.8417 95.6737V98.5699ZM46.0456 85.7952V83.0855H56.8417V85.7952H46.0456Z" fill="#E3E4E8"/>
<path d="M66.6062 99C65.0386 99 63.6622 98.6607 62.477 97.9821C61.2917 97.3034 60.3646 96.3619 59.6955 95.1576C59.036 93.9532 58.7062 92.5673 58.7062 90.9997C58.7062 89.3079 59.0312 87.8407 59.6812 86.5981C60.3311 85.346 61.2344 84.3758 62.391 83.6876C63.5475 82.9994 64.8857 82.6553 66.4054 82.6553C68.0112 82.6553 69.3733 83.0329 70.4916 83.788C71.6195 84.5335 72.4558 85.5897 73.0007 86.9566C73.5455 88.3234 73.751 89.934 73.6172 91.7883H70.1905V90.5266C70.181 88.8443 69.8846 87.6161 69.3016 86.8419C68.7185 86.0676 67.8009 85.6805 66.5488 85.6805C65.1342 85.6805 64.0828 86.1202 63.3946 86.9996C62.7064 87.8694 62.3623 89.1454 62.3623 90.8277C62.3623 92.3952 62.7064 93.6091 63.3946 94.4694C64.0828 95.3296 65.0864 95.7598 66.4054 95.7598C67.2561 95.7598 67.9873 95.5734 68.5991 95.2006C69.2204 94.8183 69.6983 94.2687 70.0328 93.5518L73.4451 94.5841C72.8525 95.9796 71.9349 97.0645 70.6923 97.8387C69.4593 98.6129 68.0972 99 66.6062 99ZM61.2726 91.7883V89.1789H71.9254V91.7883H61.2726Z" fill="#E3E4E8"/>
<path d="M74.7149 98.5699L80.3782 90.7416L74.8296 83.0855H78.9014L82.3854 88.0319L85.8121 83.0855H89.8839L84.3353 90.7416L90.0273 98.5699H85.9554L82.3854 93.4514L78.7867 98.5699H74.7149Z" fill="#E3E4E8"/>
<g clip-path="url(#clip0_4148_7817)">
<path d="M66.1474 20.0821L45.098 0.848173C44.4896 0.306111 43.7011 0.00631714 42.8839 0.00631714C42.0666 0.00631714 41.278 0.306111 40.6696 0.848173L19.5011 20.0821C18.8817 20.6317 18.5052 21.4016 18.4532 22.225C18.4011 23.0484 18.6777 23.859 19.2231 24.4813C19.7971 25.1156 20.5918 25.5104 21.4471 25.586C22.2688 25.6079 23.0667 25.3107 23.6712 24.7575L42.8143 7.4173L61.9375 24.7575C62.241 25.059 62.6036 25.2955 63.0028 25.4522C63.402 25.609 63.8292 25.6827 64.2582 25.6689C64.6872 25.655 65.1088 25.5538 65.4969 25.3716C65.885 25.1894 66.2313 24.9301 66.5144 24.6096C66.7975 24.2891 67.0115 23.9143 67.143 23.5084C67.2745 23.1025 67.3207 22.6741 67.2788 22.2497C67.237 21.8254 67.108 21.414 66.8997 21.0412C66.6914 20.6684 66.4084 20.3419 66.068 20.0821H66.1474ZM15.9862 43.1826C18.7663 48.7062 21.5266 53.9142 24.3266 59.1419C30.423 54.4665 44.0058 57.7807 53.9546 56.9521C60.3489 53.638 66.4452 50.0674 72.8197 46.7729C74.2097 43.1826 72.8197 41.2691 68.1133 40.9929L54.8086 48.4103C50.3604 47.8579 45.932 47.0491 41.4839 46.4376C34.8314 37.9155 49.5461 44.7805 53.6964 43.9717C56.1985 42.3146 56.7347 40.3616 53.6964 38.4678C47.044 37.0672 40.1137 35.6863 33.1833 34.3251C27.623 37.0672 21.8244 40.1052 15.9862 43.1234V43.1826ZM25.9152 25.3098V36.3176L32.5677 33.0231L33.1236 32.7469H33.4017L35.9038 33.2993V23.9486H49.8043V33.5558H36.7974L53.9546 37.1264H54.5306V37.4223C58.1447 39.8882 58.1447 42.9064 54.5306 45.1159L54.2525 45.392H53.9546C51.5332 45.3912 49.1203 45.1064 46.766 44.5438C45.0392 44.0391 43.2721 43.6827 41.4839 43.4785C41.4839 44.0309 42.0597 44.5438 42.3179 45.1159L53.3986 46.7729H54.8086L59.7928 44.0309V25.3098L42.8938 10.1988L25.9152 25.3098ZM22.8571 2.48552L35.9038 3.01815L23.6911 14.598L22.8571 2.48552Z" fill="white"/>
</g>
<defs>
<clipPath id="clip0_4148_7817">
<rect width="57.3498" height="59.1419" fill="white" transform="translate(15.9862)"/>
</clipPath>
</defs>
</svg>
