<svg width="24" height="24" viewBox="0 0 24 24" fill="none" xmlns="http://www.w3.org/2000/svg">
<path d="M15.2503 14.4274H12.0913L13.6551 11.88C13.7142 11.7964 13.7555 11.7016 13.7765 11.6014C13.7974 11.5012 13.7976 11.3977 13.7771 11.2974C13.7565 11.1972 13.7155 11.1022 13.6568 11.0183C13.598 10.9344 13.5227 10.8635 13.4354 10.8098C13.3481 10.7562 13.2507 10.721 13.1493 10.7064C13.0479 10.6918 12.9446 10.6981 12.8457 10.725C12.7468 10.7518 12.6545 10.7986 12.5744 10.8625C12.4943 10.9263 12.4282 11.0059 12.3801 11.0963L10.1113 14.7871C10.0422 14.9006 10.0045 15.0304 10.0021 15.1632C9.99968 15.296 10.0327 15.4271 10.0977 15.543C10.1627 15.6589 10.2575 15.7554 10.3721 15.8227C10.4868 15.89 10.6173 15.9256 10.7503 15.9259H14.0451L11.5933 20.9001C11.5463 20.9887 11.5176 21.0859 11.5089 21.1858C11.5002 21.2857 11.5117 21.3864 11.5426 21.4818C11.5736 21.5772 11.6234 21.6654 11.6891 21.7412C11.7548 21.817 11.8351 21.8789 11.9252 21.9232C12.0153 21.9674 12.1134 21.9931 12.2136 21.9988C12.3138 22.0045 12.4142 21.99 12.5087 21.9563C12.6032 21.9225 12.69 21.8701 12.7639 21.8022C12.8378 21.7343 12.8973 21.6522 12.9388 21.5609L15.9231 15.5071C15.9792 15.3929 16.0054 15.2663 15.999 15.1392C15.9926 15.0121 15.954 14.8888 15.8867 14.7807C15.8194 14.6727 15.7256 14.5836 15.6143 14.5218C15.503 14.46 15.3777 14.4275 15.2503 14.4274Z" fill="#16161A"/>
<path d="M17.9838 7.42936C17.8405 5.94324 17.1481 4.56375 16.0418 3.55994C14.9355 2.55614 13.4945 2 12 2C10.5055 2 9.06455 2.55614 7.95824 3.55994C6.85192 4.56375 6.15957 5.94324 6.01621 7.42936C4.80038 7.6751 3.71905 8.36272 2.98155 9.35913C2.24405 10.3555 1.90283 11.5898 2.02395 12.8231C2.14507 14.0564 2.71991 15.2009 3.63719 16.0352C4.55447 16.8694 5.74896 17.334 6.98941 17.339C7.16656 17.339 7.33646 17.2687 7.46172 17.1435C7.58699 17.0184 7.65736 16.8487 7.65736 16.6717C7.65736 16.4947 7.58699 16.325 7.46172 16.1999C7.33646 16.0747 7.16656 16.0044 6.98941 16.0044C6.04706 15.9934 5.14497 15.6211 4.4697 14.9643C3.79443 14.3076 3.39762 13.4168 3.36134 12.476C3.32505 11.5352 3.65206 10.6165 4.27474 9.90984C4.89743 9.20316 5.76816 8.76256 6.70687 8.67916C6.87622 8.66269 7.03332 8.58364 7.14737 8.45749C7.26141 8.33134 7.32419 8.16719 7.32339 7.99721C7.3201 7.38382 7.43778 6.77579 7.66971 6.20784C7.90164 5.63988 8.24329 5.12313 8.67513 4.68707C9.54729 3.80642 10.7339 3.30795 11.974 3.30131C13.214 3.29467 14.4059 3.78042 15.2875 4.65168C16.169 5.52295 16.668 6.70837 16.6746 7.94716V8.01389C16.6742 8.18241 16.7375 8.34488 16.852 8.46866C16.9665 8.59243 17.1236 8.66835 17.2918 8.68116C18.2269 8.76914 19.0927 9.21152 19.7113 9.91742C20.33 10.6233 20.6546 11.5391 20.6183 12.4766C20.5821 13.4142 20.1877 14.3022 19.5164 14.9583C18.8451 15.6144 17.9477 15.9888 17.0086 16.0044C16.8315 16.0044 16.6616 16.0747 16.5363 16.1999C16.411 16.325 16.3407 16.4947 16.3407 16.6717C16.3407 16.8487 16.411 17.0184 16.5363 17.1435C16.6616 17.2687 16.8315 17.339 17.0086 17.339C18.2492 17.3344 19.4441 16.8702 20.3617 16.0362C21.2794 15.2021 21.8546 14.0575 21.976 12.8241C22.0973 11.5907 21.7563 10.3562 21.0188 9.35954C20.2813 8.36292 19.1998 7.67514 17.9838 7.42936Z" fill="#16161A"/>
</svg>
