<svg width="24" height="24" viewBox="0 0 24 24" fill="none" xmlns="http://www.w3.org/2000/svg">
<path d="M22.5015 12.2326C22.5015 11.3693 22.43 10.7393 22.2753 10.0859H12.2158V13.9826H18.1205C18.0015 14.9509 17.3587 16.4093 15.9301 17.3892L15.91 17.5197L19.0907 19.9344L19.311 19.9559C21.3348 18.1242 22.5015 15.4292 22.5015 12.2326Z" fill="#4285F4"/>
<path d="M12.215 22.4996C15.1078 22.4996 17.5363 21.5662 19.3102 19.9562L15.9292 17.3895C15.0245 18.0078 13.8102 18.4395 12.215 18.4395C9.38167 18.4395 6.97693 16.6079 6.11971 14.0762L5.99406 14.0866L2.68681 16.595L2.64355 16.7128C4.40543 20.1428 8.02448 22.4996 12.215 22.4996Z" fill="#34A853"/>
<path d="M6.11997 14.0775C5.89379 13.4241 5.76289 12.7241 5.76289 12.0008C5.76289 11.2774 5.89379 10.5774 6.10807 9.9241L6.10208 9.78496L2.75337 7.23633L2.64381 7.2874C1.91765 8.71075 1.50098 10.3091 1.50098 12.0008C1.50098 13.6924 1.91765 15.2907 2.64381 16.7141L6.11997 14.0775Z" fill="#FBBC05"/>
<path d="M12.215 5.55997C14.2269 5.55997 15.584 6.41163 16.3579 7.12335L19.3817 4.23C17.5246 2.53834 15.1078 1.5 12.215 1.5C8.02451 1.5 4.40544 3.85665 2.64355 7.28662L6.10783 9.92332C6.97696 7.39166 9.38171 5.55997 12.215 5.55997Z" fill="#EB4335"/>
</svg>
