<svg width="16" height="16" viewBox="0 0 16 16" fill="none" xmlns="http://www.w3.org/2000/svg">
<g clip-path="url(#clip0_4148_7963)">
<path d="M8 9.33334C9.10457 9.33334 10 8.43791 10 7.33334C10 6.22877 9.10457 5.33334 8 5.33334C6.89543 5.33334 6 6.22877 6 7.33334C6 8.43791 6.89543 9.33334 8 9.33334Z" fill="#E3E4E8" stroke="#1786F9" stroke-linecap="round" stroke-linejoin="round"/>
<path d="M11.7713 11.1046L8.94263 13.9333C8.69262 14.1831 8.35368 14.3234 8.0003 14.3234C7.64691 14.3234 7.30797 14.1831 7.05796 13.9333L4.22863 11.1046C3.48278 10.3587 2.97485 9.40844 2.76909 8.37388C2.56332 7.33932 2.66896 6.26698 3.07263 5.29246C3.47631 4.31794 4.15989 3.485 5.03695 2.89898C5.91401 2.31296 6.94514 2.00017 7.99996 2.00017C9.05478 2.00017 10.0859 2.31296 10.963 2.89898C11.84 3.485 12.5236 4.31794 12.9273 5.29246C13.331 6.26698 13.4366 7.33932 13.2308 8.37388C13.0251 9.40844 12.5171 10.3587 11.7713 11.1046V11.1046Z" stroke="#1786F9" stroke-linecap="round" stroke-linejoin="round"/>
</g>
<defs>
<clipPath id="clip0_4148_7963">
<rect width="16" height="16" fill="white"/>
</clipPath>
</defs>
</svg>
