<svg width="24" height="24" viewBox="0 0 24 24" fill="none" xmlns="http://www.w3.org/2000/svg">
<mask id="mask0_0_266" style="mask-type:luminance" maskUnits="userSpaceOnUse" x="4" y="14" width="16" height="9">
<path fill-rule="evenodd" clip-rule="evenodd" d="M4 14.5779H20V22.0001H4V14.5779Z" fill="white"/>
</mask>
<g mask="url(#mask0_0_266)">
<path fill-rule="evenodd" clip-rule="evenodd" d="M12.001 16.0877C7.69697 16.0877 5.51514 16.8245 5.51514 18.2789C5.51514 19.7465 7.69697 20.4903 12.001 20.4903C16.3041 20.4903 18.4849 19.7535 18.4849 18.2991C18.4849 16.8315 16.3041 16.0877 12.001 16.0877ZM12.0011 22.0001C10.0223 22.0001 4 22.0001 4 18.2789C4 14.9614 8.5667 14.5779 12.0011 14.5779C13.9799 14.5779 20.0001 14.5779 20.0001 18.2991C20.0001 21.6166 15.4344 22.0001 12.0011 22.0001Z" fill="#74778B"/>
</g>
<mask id="mask1_0_266" style="mask-type:luminance" maskUnits="userSpaceOnUse" x="6" y="2" width="12" height="11">
<path fill-rule="evenodd" clip-rule="evenodd" d="M6.63623 2.00012H17.3636V12.6882H6.63623V2.00012Z" fill="white"/>
</mask>
<g mask="url(#mask1_0_266)">
<path fill-rule="evenodd" clip-rule="evenodd" d="M12.001 3.43711C9.83836 3.43711 8.07876 5.1895 8.07876 7.3445C8.07169 9.49247 9.81816 11.2438 11.9717 11.2519L12.001 11.9706V11.2519C14.1626 11.2519 15.9212 9.4985 15.9212 7.3445C15.9212 5.1895 14.1626 3.43711 12.001 3.43711ZM12.0009 12.6882H11.9686C9.01709 12.6792 6.62616 10.2806 6.63626 7.34148C6.63626 4.39734 9.04234 1.99976 12.0009 1.99976C14.9585 1.99976 17.3636 4.39734 17.3636 7.3445C17.3636 10.2917 14.9585 12.6882 12.0009 12.6882Z" fill="#74778B"/>
</g>
</svg>
