<svg width="24" height="24" viewBox="0 0 24 24" fill="none" xmlns="http://www.w3.org/2000/svg">
<path fill-rule="evenodd" clip-rule="evenodd" d="M12.0251 13.0828C11.4028 13.0828 10.7823 12.8788 10.2632 12.4708L6.09112 9.13298C5.79065 8.89298 5.74414 8.45637 5.98507 8.15914C6.22787 7.86283 6.66694 7.81575 6.96647 8.05483L11.1349 11.389C11.6586 11.8007 12.3963 11.8007 12.9237 11.3853L17.0502 8.05668C17.3498 7.81391 17.7888 7.86006 18.0326 8.15729C18.2754 8.4536 18.2298 8.88929 17.9312 9.13114L13.7972 12.4653C13.2744 12.877 12.6493 13.0828 12.0251 13.0828Z" fill="#74778B"/>
<mask id="mask0_0_156" style="mask-type:luminance" maskUnits="userSpaceOnUse" x="2" y="2" width="20" height="19">
<path fill-rule="evenodd" clip-rule="evenodd" d="M2 2.5H22V20.5H2V2.5Z" fill="white"/>
</mask>
<g mask="url(#mask0_0_156)">
<path fill-rule="evenodd" clip-rule="evenodd" d="M7.43156 19.1154H16.5665C16.5683 19.1135 16.5758 19.1154 16.5814 19.1154C17.6428 19.1154 18.5842 18.7388 19.306 18.0234C20.1442 17.1954 20.6046 16.0055 20.6046 14.6735V8.33385C20.6046 5.75569 18.906 3.88462 16.5665 3.88462H7.43342C5.09388 3.88462 3.39526 5.75569 3.39526 8.33385V14.6735C3.39526 16.0055 3.85666 17.1954 4.69387 18.0234C5.41574 18.7388 6.35807 19.1154 7.41854 19.1154H7.43156ZM7.41572 20.5C5.98036 20.5 4.6985 19.9831 3.70872 19.0046C2.60639 17.9135 1.99988 16.3757 1.99988 14.6735V8.33385C1.99988 5.008 4.3357 2.5 7.43339 2.5H16.5665C19.6641 2.5 22 5.008 22 8.33385V14.6735C22 16.3757 21.3935 17.9135 20.2911 19.0046C19.3023 19.9822 18.0195 20.5 16.5813 20.5H16.5665H7.43339H7.41572Z" fill="#74778B"/>
</g>
</svg>
