<svg width="16" height="16" viewBox="0 0 16 16" fill="none" xmlns="http://www.w3.org/2000/svg">
<path fill-rule="evenodd" clip-rule="evenodd" d="M4.44418 9.42204L1.86721 7.28878C1.38083 6.89982 1.59416 6.11763 2.21138 6.02945L5.86635 5.86661L7.42719 1.95351C7.53598 1.73663 7.75713 1.6001 7.99961 1.6001C8.24209 1.6001 8.46324 1.73734 8.57203 1.95351L10.1329 5.86661L13.7878 6.02945C14.4051 6.11763 14.6184 6.89982 14.132 7.28878L11.555 9.42204L12.2583 13.5869C12.3394 14.155 11.7492 14.5803 11.2365 14.3236L7.99961 12.2664L4.76275 14.3228C4.24935 14.5795 3.65986 14.1543 3.74092 13.5862L4.44418 9.42204Z" fill="#FABE3C"/>
</svg>
