<svg width="24" height="24" viewBox="0 0 24 24" fill="none" xmlns="http://www.w3.org/2000/svg">
<path d="M13.0505 19.4201C12.5105 19.4201 11.9405 19.3701 11.3205 19.2701L6.63048 18.5301C5.15048 18.3001 4.01048 17.8901 3.16048 17.2901C0.970475 15.7701 1.10048 13.1601 1.38048 11.3301L2.12048 6.64005C2.80048 2.34005 5.02048 0.730051 9.32048 1.40005L14.0105 2.14005C16.2205 2.49005 19.1905 3.38005 19.3805 7.11005C19.4205 7.75005 19.3805 8.48005 19.2405 9.34005L18.5105 14.0301C17.9305 17.7001 16.2205 19.4201 13.0505 19.4201ZM7.53048 2.75005C5.15048 2.75005 4.07048 3.96005 3.60048 6.88005L2.86048 11.5701C2.40048 14.5201 3.24048 15.5201 4.02048 16.0701C4.68048 16.5401 5.61048 16.8601 6.86048 17.0501L11.5505 17.7901C15.0405 18.3401 16.4805 17.2901 17.0305 13.7901L17.7605 9.10005C17.8805 8.35005 17.9205 7.72005 17.8805 7.19005V7.18005C17.7705 5.08005 16.5805 4.05005 13.7705 3.61005L9.09048 2.88005C8.51048 2.79005 8.00048 2.75005 7.53048 2.75005Z" fill="#16161A"/>
<path d="M14.6803 22.75C13.8303 22.75 12.8703 22.57 11.7603 22.2L7.25025 20.7C4.68025 19.8499 3.29025 18.6299 2.87025 16.8499C2.80025 16.5499 2.92025 16.2299 3.18025 16.0599C3.44025 15.8899 3.78025 15.8899 4.03025 16.0699C4.69025 16.5399 5.61025 16.8599 6.86025 17.0499L11.5503 17.79C15.0403 18.34 16.4803 17.2899 17.0303 13.7899L17.7603 9.09995C17.8803 8.34995 17.9203 7.71995 17.8803 7.18995C17.8703 6.92995 18.0003 6.66995 18.2303 6.51995C18.4603 6.36995 18.7503 6.35995 18.9903 6.48995C21.6703 7.91995 22.3803 10.2099 21.2203 13.7099L19.7203 18.2199C19.0103 20.3399 18.0803 21.64 16.7803 22.29C16.1503 22.6 15.4603 22.75 14.6803 22.75ZM5.73025 18.36C6.21025 18.6799 6.85025 18.99 7.72025 19.28L12.2303 20.78C13.9503 21.3499 15.1803 21.4 16.1003 20.95C17.0203 20.49 17.7203 19.4699 18.2903 17.7499L19.7903 13.2399C20.6103 10.7599 20.2903 9.43995 19.3403 8.54995C19.3203 8.79995 19.2803 9.05995 19.2403 9.33995L18.5103 14.0299C17.8303 18.33 15.6103 19.9399 11.3103 19.28L6.62025 18.54C6.31025 18.4799 6.01025 18.42 5.73025 18.36Z" fill="#16161A"/>
<path d="M8.24 9.71999C6.87 9.71999 5.75 8.59999 5.75 7.22999C5.75 5.85999 6.87 4.73999 8.24 4.73999C9.61 4.73999 10.73 5.85999 10.73 7.22999C10.73 8.59999 9.61 9.71999 8.24 9.71999ZM8.24 6.24999C7.7 6.24999 7.25 6.68999 7.25 7.23999C7.25 7.78999 7.69 8.22999 8.24 8.22999C8.78 8.22999 9.23 7.78999 9.23 7.23999C9.23 6.68999 8.78 6.24999 8.24 6.24999Z" fill="#16161A"/>
</svg>
