<svg width="20" height="20" viewBox="0 0 20 20" fill="none" xmlns="http://www.w3.org/2000/svg">
<path fill-rule="evenodd" clip-rule="evenodd" d="M1.66699 10.0125C1.66699 5.62256 5.17533 1.66663 10.017 1.66663C14.7503 1.66663 18.3337 5.54745 18.3337 9.98744C18.3337 15.1368 14.1337 18.3333 10.0003 18.3333C8.63366 18.3333 7.11699 17.9661 5.90033 17.2483C5.47533 16.9896 5.11699 16.7977 4.65866 16.9479L2.97533 17.4486C2.55033 17.5822 2.16699 17.2483 2.29199 16.7977L2.85033 14.9282C2.94199 14.6695 2.92533 14.3941 2.79199 14.1771C2.07533 12.8584 1.66699 11.4146 1.66699 10.0125ZM8.91699 10.0125C8.91699 10.605 9.39199 11.0807 9.98366 11.0891C10.5753 11.0891 11.0503 10.605 11.0503 10.0208C11.0503 9.42827 10.5753 8.95255 9.98366 8.95255C9.40033 8.94421 8.91699 9.42827 8.91699 10.0125ZM12.7587 10.0208C12.7587 10.605 13.2337 11.0891 13.8253 11.0891C14.417 11.0891 14.892 10.605 14.892 10.0208C14.892 9.42827 14.417 8.95256 13.8253 8.95256C13.2337 8.95256 12.7587 9.42827 12.7587 10.0208ZM6.14199 11.0891C5.55866 11.0891 5.07533 10.605 5.07533 10.0208C5.07533 9.42827 5.55033 8.95256 6.14199 8.95256C6.73366 8.95256 7.20866 9.42827 7.20866 10.0208C7.20866 10.605 6.73366 11.0807 6.14199 11.0891Z" fill="#74778B"/>
</svg>
