<svg width="16" height="16" viewBox="0 0 16 16" fill="none" xmlns="http://www.w3.org/2000/svg">
<path opacity="0.2" d="M8.00016 14.6667C11.6821 14.6667 14.6668 11.6819 14.6668 8.00001C14.6668 4.31811 11.6821 1.33334 8.00016 1.33334C4.31826 1.33334 1.3335 4.31811 1.3335 8.00001C1.3335 11.6819 4.31826 14.6667 8.00016 14.6667Z" fill="#1786F9"/>
<path d="M8 9.16668C8.27333 9.16668 8.5 8.94001 8.5 8.66668V5.33334C8.5 5.06001 8.27333 4.83334 8 4.83334C7.72667 4.83334 7.5 5.06001 7.5 5.33334V8.66668C7.5 8.94001 7.72667 9.16668 8 9.16668Z" fill="#1786F9"/>
<path d="M8.6135 10.4133C8.58016 10.3333 8.5335 10.26 8.4735 10.1933C8.40683 10.1333 8.3335 10.0867 8.2535 10.0533C8.0935 9.98666 7.90683 9.98666 7.74683 10.0533C7.66683 10.0867 7.5935 10.1333 7.52683 10.1933C7.46683 10.26 7.42016 10.3333 7.38683 10.4133C7.3535 10.4933 7.3335 10.58 7.3335 10.6667C7.3335 10.7533 7.3535 10.84 7.38683 10.92C7.42016 11.0067 7.46683 11.0733 7.52683 11.14C7.5935 11.2 7.66683 11.2467 7.74683 11.28C7.82683 11.3133 7.9135 11.3333 8.00016 11.3333C8.08683 11.3333 8.1735 11.3133 8.2535 11.28C8.3335 11.2467 8.40683 11.2 8.4735 11.14C8.5335 11.0733 8.58016 11.0067 8.6135 10.92C8.64683 10.84 8.66683 10.7533 8.66683 10.6667C8.66683 10.58 8.64683 10.4933 8.6135 10.4133Z" fill="#1786F9"/>
</svg>
