<svg width="22" height="22" viewBox="0 0 22 22" fill="none" xmlns="http://www.w3.org/2000/svg">
<path d="M11.0002 1.83331C5.94933 1.83331 1.8335 5.94915 1.8335 11C1.8335 16.0508 5.94933 20.1666 11.0002 20.1666C16.051 20.1666 20.1668 16.0508 20.1668 11C20.1668 5.94915 16.051 1.83331 11.0002 1.83331ZM14.6668 11.6875H11.6877V14.6666C11.6877 15.0425 11.376 15.3541 11.0002 15.3541C10.6243 15.3541 10.3127 15.0425 10.3127 14.6666V11.6875H7.3335C6.95766 11.6875 6.646 11.3758 6.646 11C6.646 10.6241 6.95766 10.3125 7.3335 10.3125H10.3127V7.33331C10.3127 6.95748 10.6243 6.64581 11.0002 6.64581C11.376 6.64581 11.6877 6.95748 11.6877 7.33331V10.3125H14.6668C15.0427 10.3125 15.3543 10.6241 15.3543 11C15.3543 11.3758 15.0427 11.6875 14.6668 11.6875Z" fill="#74778B"/>
</svg>
