<svg width="16" height="16" viewBox="0 0 16 16" fill="none" xmlns="http://www.w3.org/2000/svg">
<path d="M11.9456 9.54673C11.7729 9.71407 11.6936 9.95607 11.7329 10.1934L12.3256 13.4734C12.3756 13.7514 12.2583 14.0327 12.0256 14.1934C11.7976 14.3601 11.4943 14.3801 11.2456 14.2467L8.29292 12.7067C8.19026 12.6521 8.07626 12.6227 7.95959 12.6194H7.77892C7.71626 12.6287 7.65493 12.6487 7.59893 12.6794L4.64559 14.2267C4.49959 14.3001 4.33426 14.3261 4.17226 14.3001C3.77759 14.2254 3.51426 13.8494 3.57893 13.4527L4.17226 10.1727C4.21159 9.9334 4.13226 9.69007 3.95959 9.52007L1.55226 7.18673C1.35093 6.9914 1.28093 6.69807 1.37293 6.4334C1.46226 6.1694 1.69026 5.97673 1.96559 5.9334L5.27892 5.45273C5.53093 5.42673 5.75226 5.2734 5.86559 5.04673L7.32559 2.0534C7.36026 1.98673 7.40493 1.9254 7.45893 1.8734L7.51892 1.82673C7.55026 1.79207 7.58626 1.7634 7.62626 1.74007L7.69893 1.7134L7.81226 1.66673H8.09293C8.34359 1.69273 8.56426 1.84273 8.67959 2.06673L10.1589 5.04673C10.2656 5.26473 10.4729 5.41607 10.7123 5.45273L14.0256 5.9334C14.3056 5.9734 14.5396 6.16673 14.6323 6.4334C14.7196 6.70073 14.6443 6.99407 14.4389 7.18673L11.9456 9.54673Z" fill="#FABE3C"/>
</svg>
