<svg width="24" height="24" viewBox="0 0 24 24" fill="none" xmlns="http://www.w3.org/2000/svg">
<path d="M13.5909 11.9992L18.0441 7.54611C18.2554 7.33514 18.3743 7.04885 18.3745 6.75023C18.3748 6.45161 18.2564 6.16511 18.0455 5.95377C17.8345 5.74242 17.5482 5.62354 17.2496 5.62328C16.951 5.62301 16.6645 5.74139 16.4531 5.95236L12 10.4055L7.54687 5.95236C7.33553 5.74102 7.04888 5.62228 6.75 5.62228C6.45111 5.62228 6.16447 5.74102 5.95312 5.95236C5.74178 6.1637 5.62305 6.45035 5.62305 6.74923C5.62305 7.04812 5.74178 7.33477 5.95312 7.54611L10.4062 11.9992L5.95312 16.4524C5.74178 16.6637 5.62305 16.9503 5.62305 17.2492C5.62305 17.5481 5.74178 17.8348 5.95312 18.0461C6.16447 18.2574 6.45111 18.3762 6.75 18.3762C7.04888 18.3762 7.33553 18.2574 7.54687 18.0461L12 13.593L16.4531 18.0461C16.6645 18.2574 16.9511 18.3762 17.25 18.3762C17.5489 18.3762 17.8355 18.2574 18.0469 18.0461C18.2582 17.8348 18.3769 17.5481 18.3769 17.2492C18.3769 16.9503 18.2582 16.6637 18.0469 16.4524L13.5909 11.9992Z" fill="#74778B"/>
</svg>
