<svg width="24" height="24" viewBox="0 0 24 24" fill="none" xmlns="http://www.w3.org/2000/svg">
<path d="M19 8.71L13.667 4.562C13.199 4.19791 12.623 4.00023 12.03 4.00023C11.4371 4.00023 10.861 4.19791 10.393 4.562L5.05903 8.71C4.73847 8.95928 4.47912 9.27853 4.30078 9.64335C4.12245 10.0082 4.02984 10.4089 4.03003 10.815V18.015C4.03003 18.5454 4.24074 19.0541 4.61582 19.4292C4.99089 19.8043 5.4996 20.015 6.03003 20.015H18.03C18.5605 20.015 19.0692 19.8043 19.4442 19.4292C19.8193 19.0541 20.03 18.5454 20.03 18.015V10.815C20.03 9.992 19.65 9.215 19 8.71Z" stroke="#1786F9" stroke-width="1.5" stroke-linecap="round" stroke-linejoin="round"/>
<path d="M16 15C13.79 16.333 10.208 16.333 8 15" stroke="#1786F9" stroke-width="1.5" stroke-linecap="round" stroke-linejoin="round"/>
</svg>
