<svg width="24" height="24" viewBox="0 0 24 24" fill="none" xmlns="http://www.w3.org/2000/svg">
<path d="M18.0698 8.50995L9.50978 4.22995C3.75978 1.34995 1.39978 3.70995 4.27978 9.45995L5.14978 11.2C5.39978 11.71 5.39978 12.3 5.14978 12.81L4.27978 14.54C1.39978 20.2899 3.74978 22.65 9.50978 19.77L18.0698 15.4899C21.9098 13.57 21.9098 10.43 18.0698 8.50995ZM14.8398 12.75H9.43977C9.02978 12.75 8.68977 12.41 8.68977 12C8.68977 11.59 9.02978 11.25 9.43977 11.25H14.8398C15.2498 11.25 15.5898 11.59 15.5898 12C15.5898 12.41 15.2498 12.75 14.8398 12.75Z" fill="white"/>
</svg>
