<svg width="24" height="24" viewBox="0 0 24 24" fill="none" xmlns="http://www.w3.org/2000/svg">
<path fill-rule="evenodd" clip-rule="evenodd" d="M12.0007 8.66664C11.0064 8.66664 10.1976 9.47176 10.1976 10.4625C10.1976 11.4523 11.0064 12.2564 12.0007 12.2564C12.995 12.2564 13.8038 11.4523 13.8038 10.4625C13.8038 9.47176 12.995 8.66664 12.0007 8.66664ZM12.0007 13.7948C10.1543 13.7948 8.6521 12.3005 8.6521 10.4625C8.6521 8.62356 10.1543 7.12817 12.0007 7.12817C13.847 7.12817 15.3493 8.62356 15.3493 10.4625C15.3493 12.3005 13.847 13.7948 12.0007 13.7948Z" fill="#74778B"/>
<mask id="mask0_0_346" style="mask-type:luminance" maskUnits="userSpaceOnUse" x="3" y="2" width="18" height="20">
<path fill-rule="evenodd" clip-rule="evenodd" d="M3.5 2H20.5V22H3.5V2Z" fill="white"/>
</mask>
<g mask="url(#mask0_0_346)">
<path fill-rule="evenodd" clip-rule="evenodd" d="M11.9997 3.53846C8.16483 3.53846 5.04498 6.67385 5.04498 10.5262C5.04498 15.4277 10.8396 20.2031 11.9997 20.4574C13.1599 20.2021 18.9545 15.4267 18.9545 10.5262C18.9545 6.67385 15.8346 3.53846 11.9997 3.53846ZM11.9998 22C10.1513 22 3.49951 16.3056 3.49951 10.5262C3.49951 5.82462 7.31278 2 11.9998 2C16.6868 2 20.5 5.82462 20.5 10.5262C20.5 16.3056 13.8482 22 11.9998 22Z" fill="#74778B"/>
</g>
</svg>
