<svg width="255" height="204" viewBox="0 0 255 204" fill="none" xmlns="http://www.w3.org/2000/svg">
<path d="M228.475 55.651C221.161 35.8697 201.323 21.6838 180.315 26.5671C160.544 31.1629 146.331 48.6722 127.467 55.6868C107.689 63.041 90.5377 57.83 72.7161 49.1017C57.3545 41.5781 38.9923 35.5443 26.1644 52.0273C12.2541 69.9012 14.1142 97.2677 20.9639 117.151C27.7172 136.754 41.0134 152.931 58.2112 163.43C92.4873 184.356 140.848 186.067 177.195 166.639C214.769 146.554 244.421 98.7736 228.475 55.651Z" stroke="#D1E7FE" stroke-width="4.88229" stroke-miterlimit="10"/>
<path d="M209.985 22.5084C196.585 6.22208 173.191 -0.669692 154.949 10.8359C137.78 21.6643 130.099 42.8674 114.58 55.6832C98.3099 69.1194 80.3986 69.8241 60.6998 67.4262C43.72 65.3593 24.3947 65.6842 17.685 85.4635C10.4091 106.912 21.1452 132.153 34.1393 148.688C46.9505 164.99 64.8184 175.909 84.509 180.185C123.754 188.707 169.998 174.456 197.959 144.177C226.863 112.877 239.197 58.0122 209.985 22.5084Z" fill="#D1E7FE"/>
<path d="M123.8 46.7434L63.6311 98.4368L64.7509 121.826C64.7509 124.616 68.1165 164.172 71.3175 164.172L127.5 126.574L178.123 160.312C181.324 160.312 187.504 123.553 187.504 120.763L191.246 98.382L131.023 46.7434C128.909 45.2763 125.913 45.2763 123.8 46.7434Z" fill="#051B32"/>
<path d="M78.7562 65.257H175.835C177.077 65.257 178.268 65.7504 179.147 66.6288C180.025 67.5071 180.519 68.6985 180.519 69.9407V168.826C180.519 170.068 180.025 171.259 179.147 172.138C178.268 173.016 177.077 173.509 175.835 173.509H78.7562C77.514 173.509 76.3227 173.016 75.4443 172.138C74.566 171.259 74.0725 170.068 74.0725 168.826V69.9407C74.0725 68.6985 74.566 67.5071 75.4443 66.6288C76.3227 65.7504 77.514 65.257 78.7562 65.257Z" fill="white"/>
<path d="M106.229 128.316H83.6667C83.2469 128.316 82.8444 128.15 82.5476 127.853C82.2508 127.556 82.084 127.153 82.084 126.734V104.171C82.084 103.751 82.2508 103.349 82.5476 103.052C82.8444 102.755 83.2469 102.589 83.6667 102.589H106.229C106.649 102.589 107.052 102.755 107.348 103.052C107.645 103.349 107.812 103.751 107.812 104.171V126.734C107.812 127.153 107.645 127.556 107.348 127.853C107.052 128.15 106.649 128.316 106.229 128.316ZM85.2494 125.151H104.647V105.754H85.2494V125.151Z" fill="#D1E7FE"/>
<path d="M175.264 122.145H118.951C118.531 122.145 118.128 121.978 117.831 121.681C117.535 121.384 117.368 120.982 117.368 120.562C117.368 120.142 117.535 119.74 117.831 119.443C118.128 119.146 118.531 118.979 118.951 118.979H175.264C175.684 118.979 176.086 119.146 176.383 119.443C176.68 119.74 176.847 120.142 176.847 120.562C176.847 120.982 176.68 121.384 176.383 121.681C176.086 121.978 175.684 122.145 175.264 122.145Z" fill="#8BC2FC"/>
<path d="M93.4081 123.203C93.3953 123.203 93.3823 123.203 93.3695 123.203C93.085 123.196 92.8076 123.112 92.5665 122.961C92.3255 122.81 92.1297 122.596 91.9998 122.343L89.2398 116.963C89.0485 116.589 89.0133 116.155 89.1419 115.756C89.2706 115.356 89.5526 115.024 89.926 114.833C90.2993 114.641 90.7334 114.606 91.1329 114.734C91.5324 114.863 91.8645 115.145 92.0562 115.518L93.4885 118.31L99.1431 108.495C99.2469 108.314 99.3851 108.157 99.5499 108.03C99.7146 107.903 99.9027 107.81 100.103 107.756C100.304 107.702 100.514 107.688 100.72 107.715C100.926 107.742 101.125 107.809 101.305 107.913C101.485 108.017 101.643 108.155 101.769 108.32C101.896 108.485 101.989 108.673 102.043 108.874C102.097 109.074 102.111 109.284 102.084 109.49C102.057 109.696 101.99 109.895 101.886 110.075L94.7794 122.411C94.6406 122.651 94.4407 122.852 94.2 122.991C93.9593 123.13 93.6862 123.203 93.4081 123.203Z" fill="#3E9AFA"/>
<path d="M118.937 108.76H147.256C147.462 108.76 147.666 108.801 147.857 108.88C148.047 108.959 148.22 109.074 148.366 109.22C148.511 109.366 148.627 109.538 148.706 109.729C148.785 109.919 148.825 110.123 148.825 110.329C148.825 110.745 148.66 111.145 148.366 111.439C148.072 111.733 147.672 111.898 147.256 111.898H118.937C118.521 111.898 118.122 111.733 117.827 111.439C117.533 111.145 117.368 110.745 117.368 110.329V110.329C117.368 109.913 117.533 109.514 117.827 109.22C118.122 108.926 118.521 108.76 118.937 108.76ZM106.229 98.9879H83.6667C83.2469 98.9879 82.8444 98.8212 82.5476 98.5244C82.2508 98.2276 82.084 97.825 82.084 97.4053V74.8427C82.084 74.423 82.2508 74.0204 82.5476 73.7236C82.8444 73.4268 83.2469 73.26 83.6667 73.26H106.229C106.649 73.26 107.052 73.4268 107.348 73.7236C107.645 74.0204 107.812 74.423 107.812 74.8427V97.4053C107.812 97.825 107.645 98.2276 107.348 98.5244C107.052 98.8212 106.649 98.9879 106.229 98.9879ZM85.2494 95.8226H104.647V76.4254H85.2494V95.8226ZM161.806 82.5971H118.754C117.989 82.5971 117.368 81.8885 117.368 81.0144C117.368 80.1404 117.989 79.4317 118.754 79.4317H161.806C162.572 79.4317 163.193 80.1404 163.193 81.0144C163.193 81.8885 162.572 82.5971 161.806 82.5971Z" fill="#D1E7FE"/>
<path d="M171.879 92.8162H118.858C118.035 92.8162 117.368 92.1075 117.368 91.2335C117.368 90.3595 118.035 89.6508 118.858 89.6508H171.879C172.702 89.6508 173.369 90.3595 173.369 91.2335C173.369 92.1076 172.702 92.8162 171.879 92.8162Z" fill="#8BC2FC"/>
<path d="M93.408 93.8746C93.3952 93.8746 93.3822 93.8745 93.3694 93.8742C93.0849 93.8673 92.8075 93.7837 92.5664 93.6324C92.3254 93.4811 92.1296 93.2676 91.9997 93.0144L89.2397 87.6343C89.0481 87.2608 89.0127 86.8265 89.1413 86.4269C89.2699 86.0274 89.552 85.6953 89.9255 85.5037C90.299 85.3121 90.7332 85.2767 91.1328 85.4053C91.5324 85.5339 91.8645 85.816 92.0561 86.1895L93.4884 88.9816L99.143 79.1661C99.2467 78.9859 99.3849 78.8279 99.5497 78.7011C99.7145 78.5743 99.9026 78.4812 100.103 78.4272C100.304 78.3732 100.514 78.3592 100.72 78.3861C100.926 78.4131 101.125 78.4803 101.305 78.5841C101.485 78.6879 101.643 78.8262 101.77 78.991C101.896 79.1559 101.989 79.3441 102.043 79.5449C102.097 79.7457 102.111 79.9551 102.084 80.1613C102.057 80.3674 101.99 80.5662 101.886 80.7463L94.7793 93.0821C94.6404 93.323 94.4406 93.5231 94.1999 93.6622C93.9592 93.8013 93.6861 93.8746 93.408 93.8746Z" fill="#3E9AFA"/>
<path d="M128.733 137.529L157.767 108.963C165.391 101.461 176.275 97.174 187.697 97.174C190.38 97.174 192.554 98.8784 192.554 100.981V177.333C192.554 179.435 188.928 182.628 186.245 182.628H169.748L128.733 142.273C127.361 140.923 127.361 138.879 128.733 137.529Z" fill="#0B437C"/>
<path d="M126.267 137.477L97.2335 108.911C89.6086 101.408 78.7255 97.1219 67.303 97.1219H67.303C64.6204 97.1219 62.4458 98.8262 62.4458 100.929V177.739C62.4458 179.841 65.5593 182.628 68.2419 182.628L85.252 182.575L126.267 142.221C127.639 140.871 127.639 138.827 126.267 137.477Z" fill="#0B437C"/>
<path d="M192.554 161.705V178.171C192.554 180.632 189.959 182.627 186.759 182.627H68.2414C65.041 182.627 62.4458 180.632 62.4458 178.171V161.705L123.888 124.078C124.888 123.466 126.086 123.143 127.295 123.11C128.64 123.073 129.998 123.397 131.111 124.078L192.554 161.705Z" fill="#0F59A6"/>
<path d="M139.006 127.369L192.554 154.701L192.554 161.705L138.043 128.316L139.006 127.369Z" fill="#051B32"/>
<path d="M115.994 127.369L62.4458 154.701L62.4459 161.705L116.957 128.316L115.994 127.369Z" fill="#051B32"/>
<path d="M96.9045 36.2495L84.3464 77.035L82.3341 83.5702L76.5972 78.7292L61.6025 66.0787L96.9045 36.2495Z" fill="#0F59A6"/>
<path d="M96.9041 36.2495L53.2738 61.4481L33.4277 54.8711L96.9041 36.2495Z" fill="#0B437C"/>
<path d="M96.904 36.2495L61.6032 66.079L54.8185 79.6443L53.2737 61.4481L96.904 36.2495Z" fill="#051B32"/>
<path d="M197.027 122.307C205.3 122.307 212.006 115.6 212.006 107.327C212.006 99.0546 205.3 92.3482 197.027 92.3482C188.754 92.3482 182.048 99.0546 182.048 107.327C182.048 115.6 188.754 122.307 197.027 122.307Z" fill="#8BC2FC"/>
<path d="M202.789 109.255V105.87C202.789 104.342 202.182 102.877 201.101 101.796C200.021 100.716 198.555 100.109 197.027 100.109H197.027C196.27 100.109 195.521 100.258 194.822 100.547C194.123 100.837 193.488 101.261 192.953 101.796C192.418 102.331 191.994 102.966 191.704 103.665C191.414 104.364 191.265 105.113 191.265 105.87V109.255C191.265 111.096 190.761 111.799 189.807 113.373H204.247C203.293 111.799 202.789 111.096 202.789 109.255ZM197.027 116.311H197.027C196.45 116.311 195.897 116.082 195.489 115.674C195.082 115.266 194.852 114.713 194.852 114.136H199.202C199.202 114.713 198.972 115.266 198.565 115.674C198.157 116.082 197.604 116.311 197.027 116.311Z" fill="white"/>
<path d="M197.027 98.344C196.678 98.344 196.337 98.4475 196.047 98.6414C195.756 98.8353 195.53 99.1109 195.397 99.4334C195.263 99.7558 195.228 100.111 195.296 100.453C195.364 100.795 195.532 101.11 195.779 101.357C196.026 101.603 196.34 101.771 196.683 101.839C197.025 101.908 197.38 101.873 197.702 101.739C198.025 101.606 198.3 101.379 198.494 101.089C198.688 100.799 198.792 100.458 198.792 100.109C198.792 99.6407 198.606 99.1918 198.275 98.8609C197.944 98.5299 197.495 98.344 197.027 98.344ZM197.027 101.169C196.817 101.169 196.612 101.107 196.438 100.99C196.264 100.874 196.128 100.708 196.047 100.514C195.967 100.321 195.946 100.108 195.987 99.9018C196.028 99.6962 196.129 99.5073 196.277 99.359C196.426 99.2107 196.614 99.1098 196.82 99.0689C197.026 99.028 197.239 99.049 197.433 99.1292C197.626 99.2094 197.792 99.3453 197.908 99.5197C198.025 99.694 198.087 99.899 198.087 100.109C198.087 100.39 197.975 100.66 197.777 100.858C197.578 101.057 197.308 101.169 197.027 101.169Z" fill="white"/>
<path d="M197.027 125.645C192.789 125.645 188.682 124.175 185.406 121.487C182.131 118.798 179.888 115.057 179.061 110.901C178.235 106.744 178.875 102.43 180.872 98.6925C182.87 94.9551 186.102 92.0259 190.017 90.4042C193.933 88.7825 198.289 88.5685 202.344 89.7987C206.4 91.0289 209.903 93.6271 212.257 97.1508C214.612 100.674 215.672 104.905 215.256 109.123C214.841 113.34 212.976 117.283 209.979 120.28C208.282 121.986 206.264 123.339 204.041 124.26C201.817 125.181 199.433 125.651 197.027 125.645ZM197.027 90.4391C193.12 90.4391 189.333 91.7939 186.313 94.2726C183.293 96.7513 181.225 100.201 180.463 104.033C179.701 107.865 180.291 111.843 182.133 115.288C183.975 118.734 186.954 121.435 190.564 122.93C194.174 124.425 198.19 124.623 201.929 123.488C205.668 122.354 208.898 119.959 211.069 116.71C213.24 113.461 214.217 109.56 213.834 105.672C213.451 101.784 211.731 98.1484 208.969 95.3856C207.404 93.8124 205.543 92.5652 203.493 91.7162C201.443 90.8671 199.246 90.433 197.027 90.4391Z" fill="#8BC2FC"/>
<path d="M183.539 62.4022C183.398 62.4022 183.259 62.3603 183.142 62.2818C183.024 62.2032 182.933 62.0916 182.879 61.961C182.825 61.8304 182.81 61.6867 182.838 61.5481C182.866 61.4094 182.934 61.2821 183.034 61.1821L187.717 56.4988C187.851 56.3647 188.033 56.2894 188.222 56.2894C188.412 56.2894 188.594 56.3647 188.728 56.4988C188.862 56.6328 188.937 56.8146 188.937 57.0041C188.937 57.1937 188.862 57.3755 188.728 57.5095L184.044 62.1929C183.978 62.2593 183.899 62.312 183.812 62.348C183.726 62.3839 183.633 62.4023 183.539 62.4022Z" fill="#0B437C"/>
<path d="M183.539 62.5809C183.362 62.5809 183.189 62.5285 183.043 62.4303C182.896 62.3322 182.781 62.1926 182.714 62.0294C182.646 61.8662 182.628 61.6865 182.663 61.5132C182.697 61.3399 182.782 61.1808 182.907 61.0558L187.591 56.3724C187.758 56.2049 187.985 56.1108 188.222 56.1108C188.459 56.1108 188.686 56.2049 188.854 56.3724C189.022 56.54 189.116 56.7672 189.116 57.0041C189.116 57.2411 189.022 57.4683 188.854 57.6358L184.171 62.3192C184.088 62.4024 183.989 62.4684 183.881 62.5133C183.772 62.5582 183.656 62.5812 183.539 62.5809ZM188.222 56.4684C188.152 56.4683 188.082 56.4821 188.017 56.509C187.952 56.5359 187.893 56.5754 187.843 56.6252L183.16 61.3085C183.059 61.409 183.003 61.5453 183.003 61.6874C183.003 61.8295 183.06 61.9658 183.16 62.0663C183.261 62.1667 183.397 62.2232 183.539 62.2233C183.681 62.2233 183.817 62.1669 183.918 62.0665L188.601 57.3832C188.676 57.3083 188.727 57.2128 188.748 57.1088C188.769 57.0048 188.758 56.8971 188.718 56.7991C188.677 56.7012 188.608 56.6175 188.52 56.5586C188.432 56.4998 188.328 56.4684 188.222 56.4684ZM193.554 69.1044C193.518 69.1044 193.482 69.1017 193.446 69.0964L185.652 67.9255C185.465 67.8973 185.296 67.7958 185.184 67.6433C185.071 67.4909 185.024 67.3 185.052 67.1127C185.08 66.9253 185.182 66.7568 185.334 66.6442C185.486 66.5315 185.677 66.484 185.865 66.512L193.659 67.6829C193.837 67.7097 193.999 67.8028 194.111 67.9437C194.224 68.0845 194.279 68.2627 194.265 68.4424C194.252 68.6222 194.171 68.7903 194.039 68.9131C193.907 69.0358 193.734 69.1042 193.554 69.1044Z" fill="#0B437C"/>
<path d="M193.554 69.2831C193.509 69.2831 193.464 69.2797 193.42 69.2731L185.626 68.1022C185.509 68.085 185.398 68.0451 185.297 67.9846C185.196 67.9242 185.109 67.8445 185.039 67.7501C184.969 67.6557 184.918 67.5484 184.89 67.4345C184.861 67.3205 184.856 67.202 184.873 67.0858C184.891 66.9697 184.931 66.8581 184.991 66.7575C185.052 66.6569 185.132 66.5692 185.226 66.4995C185.321 66.4298 185.428 66.3794 185.542 66.3512C185.656 66.3231 185.775 66.3177 185.891 66.3353L193.685 67.5062C193.908 67.5397 194.11 67.6561 194.251 67.8322C194.391 68.0083 194.46 68.231 194.444 68.4558C194.427 68.6805 194.326 68.8906 194.161 69.044C193.996 69.1975 193.779 69.2829 193.554 69.2831ZM185.758 66.6827C185.623 66.6828 185.493 66.734 185.394 66.826C185.295 66.918 185.234 67.0441 185.224 67.179C185.214 67.3138 185.255 67.4475 185.339 67.5532C185.424 67.6589 185.545 67.7288 185.679 67.7489L193.473 68.9197C193.543 68.9303 193.614 68.927 193.682 68.91C193.75 68.8931 193.815 68.8628 193.871 68.821C193.928 68.7791 193.976 68.7265 194.012 68.6662C194.048 68.6058 194.072 68.5389 194.083 68.4693C194.104 68.3287 194.068 68.1856 193.984 68.0713C193.899 67.957 193.773 67.8808 193.632 67.8596L185.838 66.6887C185.812 66.6847 185.785 66.6827 185.758 66.6827ZM178.007 60.1828C177.836 60.1825 177.67 60.121 177.541 60.0093C177.411 59.8977 177.326 59.7433 177.301 59.5742L176.13 51.7799C176.116 51.6871 176.121 51.5925 176.143 51.5014C176.166 51.4103 176.206 51.3246 176.262 51.2491C176.318 51.1736 176.388 51.1099 176.468 51.0615C176.549 51.0131 176.638 50.981 176.731 50.967C176.823 50.9531 176.918 50.9576 177.009 50.9802C177.1 51.0028 177.186 51.0432 177.261 51.099C177.337 51.1547 177.401 51.2248 177.449 51.3052C177.497 51.3856 177.53 51.4748 177.543 51.5676L178.714 59.3618C178.73 59.4636 178.723 59.5674 178.694 59.6663C178.665 59.7651 178.616 59.8566 178.549 59.9345C178.482 60.0124 178.398 60.075 178.305 60.1178C178.211 60.1607 178.11 60.1828 178.007 60.1828Z" fill="#0B437C"/>
<path d="M178.007 60.3615C177.793 60.3602 177.587 60.2829 177.425 60.1435C177.264 60.0041 177.157 59.8117 177.124 59.6007L175.953 51.8065C175.918 51.5722 175.977 51.3335 176.118 51.1429C176.259 50.9524 176.47 50.8255 176.704 50.7903C176.938 50.7551 177.177 50.8145 177.368 50.9553C177.558 51.0961 177.685 51.3068 177.72 51.5411L178.891 59.3353C178.926 59.5696 178.867 59.8083 178.726 59.9989C178.585 60.1894 178.375 60.3163 178.14 60.3514C178.096 60.3581 178.051 60.3614 178.007 60.3615ZM176.838 51.1377C176.811 51.1377 176.784 51.1397 176.757 51.1437C176.688 51.1541 176.621 51.1782 176.56 51.2145C176.5 51.2508 176.447 51.2986 176.406 51.3552C176.364 51.4118 176.334 51.4761 176.317 51.5445C176.3 51.6128 176.296 51.6838 176.307 51.7534L177.478 59.5476C177.488 59.6172 177.512 59.6842 177.548 59.7445C177.584 59.8049 177.632 59.8575 177.689 59.8993C177.745 59.9412 177.81 59.9714 177.878 59.9884C177.947 60.0053 178.018 60.0086 178.087 59.9981C178.157 59.9876 178.224 59.9636 178.284 59.9273C178.344 59.891 178.397 59.8432 178.439 59.7865C178.48 59.7299 178.511 59.6656 178.528 59.5973C178.545 59.529 178.548 59.458 178.538 59.3884L177.367 51.5942C177.348 51.4674 177.284 51.3517 177.187 51.268C177.09 51.1843 176.966 51.138 176.838 51.1377Z" fill="#0B437C"/>
</svg>
