<svg width="20" height="20" viewBox="0 0 20 20" fill="none" xmlns="http://www.w3.org/2000/svg">
<path d="M10.0002 6.66665C10.1098 6.66602 10.2186 6.68704 10.3201 6.72851C10.4216 6.76998 10.514 6.83109 10.5918 6.90832L15.5918 11.9083C15.7488 12.0652 15.8369 12.2781 15.8369 12.5C15.8369 12.7219 15.7488 12.9347 15.5918 13.0917C15.4349 13.2486 15.2221 13.3367 15.0002 13.3367C14.7783 13.3367 14.5654 13.2486 14.4085 13.0917L10.0002 8.67499L5.59184 13.0833C5.43242 13.2198 5.22736 13.2912 5.01762 13.2831C4.80789 13.275 4.60894 13.188 4.46053 13.0396C4.31212 12.8912 4.22518 12.6923 4.21708 12.4825C4.20898 12.2728 4.28031 12.0677 4.41683 11.9083L9.41684 6.90832C9.57205 6.75437 9.78155 6.66757 10.0002 6.66665Z" fill="#74778B"/>
</svg>
