<svg width="255" height="255" viewBox="0 0 255 255" fill="none" xmlns="http://www.w3.org/2000/svg">
<g clip-path="url(#clip0_5081_6120)">
<path d="M244.318 173.477C218.507 233.234 150.375 258.9 96.9901 254.524C82.4143 253.329 53.0879 250.925 30.1893 229.479C-13.7861 188.286 -7.01336 102.188 35.0863 51.4973C40.5049 44.9693 78.0296 1.23311 136.505 1.82143C179.317 2.25038 209.368 26.204 213.021 29.1884C217.637 32.9578 227.817 41.9165 236.994 56.1282C258.552 89.5232 260.449 136.135 244.318 173.477Z" fill="#D1E7FE" fill-opacity="0.2"/>
<path d="M101.149 165.41C101.149 165.41 135.989 57.2958 196.646 1.86515C200.723 -1.86059 207.58 0.294166 208.724 5.6774C216.351 41.6725 228.314 149.904 101.149 165.41Z" fill="#D1E7FE"/>
<path opacity="0.24" d="M113.113 159.268C112.814 159.507 113.158 159.955 113.489 159.757C125.689 152.454 173.448 115.53 195.606 35.7182C195.677 35.4623 195.284 35.3284 195.19 35.5771C188.256 53.9252 160.425 121.385 113.113 159.268Z" fill="white"/>
<path opacity="0.5" d="M252.43 33.283C255.057 52.5382 265.742 165.208 161.318 194.18C161.318 194.18 135.099 121.807 249.777 32.2074C250.006 32.0279 250.278 31.9118 250.566 31.8712C250.855 31.8306 251.149 31.8668 251.418 31.9761C251.688 32.0854 251.924 32.264 252.102 32.4935C252.279 32.7231 252.393 32.9955 252.43 33.283Z" fill="#D1E7FE"/>
<path opacity="0.43" d="M242.921 50.357C241.478 56.6027 239.789 62.7783 238.006 68.9292C236.223 75.0802 234.28 81.1829 232.217 87.2464C230.154 93.31 227.954 99.328 225.614 105.292L224.74 107.53L223.832 109.755L222.923 111.98C222.623 112.722 222.317 113.461 221.997 114.196L220.107 118.616L218.142 123.003C217.501 124.47 216.797 125.912 216.118 127.363C215.439 128.815 214.759 130.267 214.034 131.697L211.89 136.002L209.657 140.262L209.098 141.327L208.517 142.38L207.349 144.484L206.182 146.587C205.797 147.291 205.374 147.973 204.971 148.667C204.154 150.047 203.35 151.435 202.521 152.809L199.959 156.887L199.318 157.906L198.649 158.908L197.307 160.911L195.965 162.915C195.517 163.582 195.032 164.222 194.568 164.877L193.159 166.832L192.454 167.809C192.22 168.135 191.987 168.462 191.735 168.775L188.775 172.581C184.738 177.586 180.418 182.371 175.741 186.808C175.634 186.909 175.492 186.963 175.345 186.96C175.198 186.956 175.058 186.894 174.957 186.788C174.855 186.682 174.8 186.541 174.804 186.394C174.807 186.248 174.869 186.109 174.976 186.008H174.981C179.631 181.637 183.938 176.901 187.969 171.948L190.927 168.178C191.178 167.867 191.412 167.54 191.645 167.22L192.35 166.251L193.759 164.313C194.224 163.664 194.71 163.029 195.157 162.367L196.501 160.382L197.845 158.398L198.516 157.404L199.156 156.392L201.718 152.342C202.549 150.976 203.356 149.598 204.177 148.226C204.58 147.537 205.005 146.86 205.391 146.159L206.563 144.064L207.735 141.969L208.319 140.922L208.88 139.863L211.124 135.625L213.28 131.345C214.012 129.922 214.688 128.474 215.376 127.031C216.065 125.587 216.765 124.151 217.413 122.69L219.392 118.318L221.297 113.917C221.619 113.188 221.929 112.448 222.231 111.707L223.146 109.491L224.061 107.274L224.943 105.044C227.303 99.1003 229.526 93.1038 231.61 87.0543C233.695 81.0047 235.647 74.9144 237.466 68.7835C239.273 62.6499 240.987 56.4816 242.451 50.2632C242.457 50.2319 242.469 50.2021 242.486 50.1755C242.504 50.149 242.526 50.1262 242.553 50.1087C242.58 50.0912 242.61 50.0793 242.641 50.0736C242.672 50.068 242.705 50.0688 242.736 50.076C242.767 50.0832 242.796 50.0966 242.822 50.1154C242.848 50.1342 242.869 50.1581 242.885 50.1855C242.902 50.2129 242.912 50.2433 242.916 50.2748C242.92 50.3063 242.917 50.3383 242.909 50.3689L242.921 50.357Z" fill="white"/>
<path d="M91.3896 103.425C89.5953 88.1526 79.6146 72.777 72.6808 57.9988C69.0144 50.1849 66.1239 42.2262 65.1778 33.6063C64.2363 25.0365 65.6719 15.0987 59.8489 7.89043C48.116 -6.63182 33.0552 5.53168 26.6576 20.6113C19.2343 38.1098 22.5905 62.4878 23.2474 81.784C23.6436 93.4165 22.7972 105.689 24.4817 117.194C27.2725 136.254 34.9794 147.915 46.2183 154.148C51.463 157.056 57.5128 158.197 63.463 157.399C69.4131 156.601 74.944 153.908 79.2285 149.721C87.1907 141.96 94.2865 128.062 91.3896 103.425Z" fill="#D1E7FE"/>
<path opacity="0.5" d="M70.6797 181.976C70.6142 181.963 70.5527 181.934 70.5003 181.893C70.4479 181.852 70.4059 181.799 70.3777 181.738C66.9666 174.41 58.7034 154.035 51.8418 129.372C46.8094 111.272 43.1897 93.4848 41.0971 76.5073C38.4793 55.2767 38.2478 35.2574 40.409 17.0049C40.4137 16.948 40.4298 16.8927 40.4564 16.8422C40.483 16.7917 40.5196 16.7471 40.5639 16.711C40.6082 16.6749 40.6594 16.648 40.7144 16.632C40.7693 16.616 40.827 16.6112 40.8839 16.6179C40.9408 16.6246 40.9957 16.6426 41.0455 16.6709C41.0952 16.6991 41.1387 16.7371 41.1734 16.7825C41.2081 16.8279 41.2332 16.8797 41.2473 16.935C41.2614 16.9903 41.2641 17.0478 41.2554 17.1041C39.1024 35.2865 39.3339 55.2348 41.9416 76.3916C44.0287 93.3254 47.6338 111.069 52.658 129.127C59.5049 153.737 67.7481 174.067 71.1509 181.378C71.1839 181.449 71.1964 181.528 71.1871 181.606C71.1778 181.683 71.1471 181.757 71.0983 181.819C71.0495 181.88 70.9846 181.927 70.9107 181.954C70.8368 181.981 70.7569 181.987 70.6797 181.972V181.976Z" fill="white"/>
<path opacity="0.5" d="M41.4374 139.982C27.0254 145.143 5.13968 125.866 4.47174 108.905C4.21188 102.262 7.34664 99.5128 6.3493 90.0806C5.14059 78.6365 -0.0757738 76.9954 -0.00165948 68.0577C0.0642199 60.1964 4.2073 48.4883 13.2227 45.6095C21.6406 42.9201 31.1071 48.9627 34.8165 55.8669C38.7144 63.1234 34.2904 67.6743 38.0849 75.9836C41.8363 84.201 48.1031 84.0034 52.7092 89.9112C62.85 102.916 56.4433 134.608 41.4374 139.982Z" fill="#D1E7FE"/>
<path opacity="0.3" d="M14.4899 79.4243C16.5029 85.884 18.4528 92.3564 20.3971 98.8225L23.3352 108.513L24.8101 113.354C25.3115 114.965 25.8166 116.573 26.3061 118.188C26.7957 119.803 27.3126 121.407 27.8241 123.015L28.5918 125.424C28.8388 126.231 29.1051 127.031 29.365 127.832L30.9314 132.643C31.4804 134.235 32.0084 135.838 32.5482 137.435C34.7442 143.81 37.0198 150.156 39.5516 156.424L39.1645 156.606C38.3859 155.103 37.6237 153.587 36.8661 152.068C36.4726 151.314 36.1341 150.536 35.7873 149.764L34.7396 147.445L34.219 146.283C34.0461 145.896 33.874 145.508 33.7167 145.115L32.7459 142.764C32.099 141.198 31.4484 139.63 30.8601 138.042C30.2717 136.453 29.6477 134.876 29.0612 133.286L27.373 128.493C27.094 127.693 26.803 126.897 26.5404 126.092L25.7535 123.675C25.2283 122.066 24.6903 120.459 24.1907 118.842C22.1274 112.39 20.3047 105.869 18.59 99.3216C17.7318 96.0485 16.9247 92.7623 16.1689 89.4631C15.4205 86.1627 14.6876 82.8595 14.0791 79.5254L14.4899 79.4243Z" fill="white"/>
<path d="M14.7076 88.8675C10.656 86.5179 7.62834 82.1464 7.59814 82.0982L7.77474 81.978C7.80493 82.0217 10.8079 86.3603 14.8202 88.6835L14.7076 88.8675Z" fill="white"/>
<path d="M15.0873 94.0231C9.15267 91.5086 5.78642 86.3849 5.75439 86.3339L5.93739 86.2182C5.97033 86.2692 9.30365 91.3401 15.1788 93.8273L15.0873 94.0231Z" fill="white"/>
<path d="M16.0453 100.361C8.86811 98.3335 5.1569 91.7745 5.12305 91.7089L5.31062 91.606C5.3463 91.6716 9.01451 98.155 16.1075 100.157L16.0453 100.361Z" fill="white"/>
<path d="M18.1005 106.093C11.055 105.162 6.46817 98.7897 6.42334 98.726L6.59719 98.603C6.64203 98.6668 11.1804 104.964 18.1261 105.882L18.1005 106.093Z" fill="white"/>
<path d="M19.6401 111.28C15.0715 110.995 10.5816 107.493 10.5396 107.455L10.6722 107.289C10.7161 107.324 15.1557 110.785 19.6529 111.066L19.6401 111.28Z" fill="white"/>
<path d="M21.0465 117.429C14.6864 116.974 11.688 114.158 11.6587 114.13L11.8069 113.977C11.8362 114.005 14.7852 116.77 21.0621 117.217L21.0465 117.429Z" fill="white"/>
<path d="M23.799 124.823C17.1754 124.89 11.8958 119.34 11.8428 119.284L11.9992 119.139C12.0505 119.194 17.2687 124.676 23.7962 124.61L23.799 124.823Z" fill="white"/>
<path d="M25.4397 132.203C17.4143 132.476 11.6709 125.791 11.6133 125.723L11.7771 125.587C11.8338 125.653 17.5131 132.258 25.4333 131.991L25.4397 132.203Z" fill="white"/>
<path d="M28.4909 140.056C16.4963 139.225 10.4061 131.255 10.3457 131.174L10.5168 131.047C10.5772 131.126 16.6134 139.02 28.5065 139.844L28.4909 140.056Z" fill="white"/>
<path d="M31.2754 149.19C18.8049 149.701 11.1785 138.155 11.1025 138.039L11.2855 137.924C11.3606 138.04 18.9239 149.485 31.2699 148.977L31.2754 149.19Z" fill="white"/>
<path d="M34.3167 157.541C27.8203 158.014 22.5225 154.665 19.2193 151.771C15.6426 148.64 13.5702 145.351 13.5464 145.318L13.7294 145.206C13.8108 145.336 22.0137 158.229 34.3011 157.329L34.3167 157.541Z" fill="white"/>
<path d="M244.243 124.08H192.527V223.351H244.243V124.08Z" fill="#0F59A6"/>
<path d="M251.17 132.659H190.065L178.882 87.9258H238.082L253.573 128.908C253.76 129.31 253.842 129.752 253.813 130.195C253.783 130.637 253.642 131.064 253.402 131.438C253.163 131.812 252.833 132.119 252.443 132.333C252.053 132.546 251.615 132.658 251.17 132.659Z" fill="#0B437C"/>
<path d="M238.087 88.5387L171.42 88.8047L169.574 83.2912L234 83.6364C236.26 83.6364 238.091 84.9678 238.091 86.6089L238.087 88.5387Z" fill="#0B437C"/>
<g opacity="0.89">
<path d="M217.335 153.494H205.975C205.943 153.494 205.918 153.519 205.918 153.55V193.881C205.918 193.912 205.943 193.937 205.975 193.937H217.335C217.367 193.937 217.392 193.912 217.392 193.881V153.55C217.392 153.519 217.367 153.494 217.335 153.494Z" fill="white"/>
<path d="M231.104 153.494H219.743C219.712 153.494 219.687 153.519 219.687 153.55V193.881C219.687 193.912 219.712 193.937 219.743 193.937H231.104C231.135 193.937 231.161 193.912 231.161 193.881V153.55C231.161 153.519 231.135 153.494 231.104 153.494Z" fill="white"/>
</g>
<path d="M14.5422 223.351H63.1282V124.083H11.4102V220.234C11.4102 220.644 11.4912 221.049 11.6486 221.427C11.806 221.805 12.0367 222.149 12.3276 222.438C12.6184 222.728 12.9637 222.957 13.3437 223.114C13.7237 223.27 14.1309 223.351 14.5422 223.351Z" fill="#0F59A6"/>
<path d="M4.48323 132.659H65.5873L87.4007 85.129L17.5658 87.9258L2.07589 128.908C1.88859 129.31 1.80612 129.753 1.83609 130.196C1.86605 130.638 2.00748 131.066 2.24734 131.44C2.48719 131.814 2.81774 132.121 3.20851 132.334C3.59927 132.547 4.03765 132.659 4.48323 132.659Z" fill="#0B437C"/>
<path d="M17.5659 88.5387L88.3241 87.4286L93.8634 82.834L21.9734 83.6382C19.5396 83.6382 17.5659 84.9696 17.5659 86.6107V88.5387Z" fill="#0B437C"/>
<g opacity="0.89">
<path d="M38.3161 193.938H49.6767C49.708 193.938 49.7334 193.913 49.7334 193.882L49.7334 153.551C49.7334 153.52 49.708 153.494 49.6767 153.494H38.3161C38.2848 153.494 38.2594 153.52 38.2594 153.551L38.2594 193.882C38.2594 193.913 38.2848 193.938 38.3161 193.938Z" fill="white"/>
<path d="M24.5485 193.938H35.9091C35.9404 193.938 35.9658 193.913 35.9658 193.882L35.9658 153.551C35.9658 153.52 35.9404 153.494 35.9091 153.494H24.5485C24.5172 153.494 24.4918 153.52 24.4918 153.551L24.4918 193.882C24.4918 193.913 24.5172 193.938 24.5485 193.938Z" fill="white"/>
</g>
<path d="M127.826 61.9914C127.826 61.9914 57.7151 114.674 55.9775 114.674V224.127C55.9778 225.084 56.3601 226.003 57.0405 226.68C57.7208 227.357 58.6435 227.737 59.6055 227.737H196.46C197.313 227.737 198.13 227.4 198.733 226.8C199.336 226.199 199.675 225.385 199.675 224.537V114.674L127.826 61.9914Z" fill="#0F59A6"/>
<path d="M102.627 215.828H146.6C146.677 215.828 146.751 215.859 146.805 215.913C146.86 215.967 146.89 216.041 146.89 216.117V223.351H102.337V216.117C102.337 216.041 102.368 215.967 102.422 215.913C102.477 215.859 102.551 215.828 102.627 215.828Z" fill="#0B437C"/>
<path d="M102.627 221.795H146.6C146.677 221.795 146.751 221.826 146.805 221.88C146.86 221.934 146.89 222.007 146.89 222.084V229.318H102.337V222.084C102.337 222.007 102.368 221.934 102.422 221.88C102.477 221.826 102.551 221.795 102.627 221.795Z" fill="#0F59A6"/>
<path d="M109.735 156.783H139.492C139.579 156.783 139.662 156.817 139.723 156.878C139.784 156.939 139.818 157.021 139.818 157.107V215.829H109.409V157.107C109.409 157.021 109.444 156.939 109.505 156.878C109.566 156.817 109.649 156.783 109.735 156.783Z" fill="#0B437C"/>
<path d="M137.671 152.809H111.557C110.987 152.809 110.441 152.584 110.038 152.183C109.635 151.782 109.409 151.238 109.409 150.671V148.805C109.409 148.264 109.615 147.743 109.986 147.347C110.357 146.952 110.865 146.711 111.408 146.673L137.522 144.867C137.816 144.847 138.111 144.887 138.389 144.985C138.666 145.083 138.921 145.237 139.136 145.437C139.352 145.636 139.523 145.878 139.641 146.147C139.758 146.416 139.819 146.706 139.819 146.999V150.671C139.819 151.238 139.593 151.782 139.19 152.183C138.787 152.584 138.241 152.809 137.671 152.809Z" fill="url(#paint0_linear_5081_6120)"/>
<path opacity="0.9" d="M163.967 126.578H163.678C156.168 126.578 149.593 131.871 149.593 139.347V152.809H163.967V126.578Z" fill="white"/>
<path opacity="0.9" d="M149.593 156.783V196.389C149.593 197.722 151.166 199.79 152.505 199.79H163.967V156.783H149.593Z" fill="white"/>
<path opacity="0.9" d="M167.892 126.578H167.16V152.807H181.534V139.347C181.536 131.871 175.403 126.578 167.892 126.578Z" fill="white"/>
<path opacity="0.9" d="M167.162 199.79H179.065C180.405 199.79 181.535 197.722 181.535 196.389V156.783H167.161L167.162 199.79Z" fill="white"/>
<path opacity="0.9" d="M84.794 126.578H84.5048C76.9946 126.578 70.4194 131.871 70.4194 139.347V152.809H84.794V126.578Z" fill="white"/>
<path opacity="0.9" d="M70.4194 156.783V196.389C70.4194 197.722 71.9923 199.79 73.3318 199.79H84.794V156.783H70.4194Z" fill="white"/>
<path opacity="0.9" d="M88.7183 126.578H87.9863V152.807H102.361V139.347C102.363 131.871 96.2295 126.578 88.7183 126.578Z" fill="white"/>
<path opacity="0.9" d="M87.9882 199.79H99.8913C101.232 199.79 102.362 197.722 102.362 196.389V156.783H87.9873L87.9882 199.79Z" fill="white"/>
<path d="M120.392 199.956H115.802C115.067 199.955 114.361 199.664 113.841 199.146C113.32 198.628 113.027 197.926 113.026 197.193V163.423C113.027 162.691 113.32 161.988 113.84 161.47C114.361 160.952 115.066 160.661 115.802 160.66H120.392C121.128 160.661 121.833 160.952 122.354 161.47C122.874 161.988 123.166 162.691 123.167 163.423V197.193C123.166 197.926 122.874 198.628 122.354 199.146C121.833 199.664 121.128 199.955 120.392 199.956ZM115.802 160.992C115.155 160.992 114.534 161.249 114.076 161.705C113.618 162.16 113.36 162.778 113.359 163.423V197.193C113.36 197.838 113.618 198.456 114.076 198.912C114.534 199.367 115.155 199.624 115.802 199.624H120.392C121.04 199.623 121.66 199.367 122.118 198.911C122.576 198.456 122.833 197.838 122.834 197.193V163.423C122.833 162.779 122.576 162.161 122.118 161.705C121.66 161.249 121.04 160.992 120.392 160.992H115.802Z" fill="url(#paint1_linear_5081_6120)"/>
<path d="M133.199 199.956H128.61C127.874 199.955 127.168 199.664 126.648 199.146C126.128 198.628 125.835 197.926 125.834 197.193V163.423C125.835 162.691 126.128 161.988 126.648 161.47C127.168 160.952 127.874 160.661 128.61 160.66H133.199C133.935 160.661 134.641 160.952 135.161 161.47C135.681 161.988 135.974 162.691 135.974 163.423V197.193C135.974 197.926 135.681 198.628 135.161 199.146C134.64 199.664 133.935 199.955 133.199 199.956ZM128.61 160.992C127.962 160.992 127.341 161.249 126.883 161.705C126.425 162.16 126.168 162.779 126.168 163.423V197.193C126.168 197.838 126.426 198.456 126.884 198.911C127.341 199.367 127.962 199.623 128.61 199.624H133.199C133.847 199.623 134.467 199.367 134.925 198.911C135.383 198.456 135.641 197.838 135.641 197.193V163.423C135.641 162.779 135.383 162.16 134.926 161.705C134.468 161.249 133.847 160.992 133.199 160.992H128.61Z" fill="url(#paint2_linear_5081_6120)"/>
<path d="M120.392 211.341H115.802C115.067 211.341 114.361 211.049 113.841 210.531C113.32 210.014 113.027 209.312 113.026 208.579V204.695C113.027 203.962 113.32 203.26 113.84 202.742C114.361 202.224 115.066 201.932 115.802 201.932H120.392C121.128 201.933 121.833 202.224 122.354 202.742C122.874 203.26 123.166 203.962 123.167 204.695V208.579C123.166 209.311 122.874 210.013 122.353 210.531C121.833 211.049 121.128 211.34 120.392 211.341ZM115.802 202.264C115.155 202.265 114.534 202.521 114.076 202.977C113.618 203.432 113.36 204.05 113.359 204.695V208.579C113.36 209.224 113.618 209.841 114.076 210.297C114.534 210.753 115.155 211.009 115.802 211.01H120.392C121.039 211.009 121.66 210.752 122.118 210.297C122.576 209.841 122.833 209.223 122.834 208.579V204.695C122.833 204.05 122.576 203.433 122.118 202.977C121.66 202.521 121.04 202.265 120.392 202.264H115.802Z" fill="url(#paint3_linear_5081_6120)"/>
<path d="M133.199 211.341H128.61C127.874 211.341 127.168 211.049 126.648 210.531C126.128 210.014 125.835 209.311 125.834 208.579V204.695C125.835 203.962 126.128 203.26 126.648 202.742C127.168 202.224 127.874 201.933 128.61 201.932H133.199C133.935 201.933 134.641 202.224 135.161 202.742C135.681 203.26 135.974 203.962 135.974 204.695V208.579C135.974 209.311 135.681 210.014 135.161 210.531C134.64 211.049 133.935 211.341 133.199 211.341ZM128.61 202.264C127.962 202.265 127.341 202.521 126.884 202.977C126.426 203.433 126.168 204.05 126.168 204.695V208.579C126.168 209.224 126.426 209.841 126.884 210.297C127.341 210.753 127.962 211.009 128.61 211.01H133.199C133.847 211.009 134.467 210.753 134.925 210.297C135.383 209.841 135.641 209.224 135.641 208.579V204.695C135.641 204.05 135.383 203.433 134.925 202.977C134.467 202.521 133.847 202.265 133.199 202.264H128.61Z" fill="url(#paint4_linear_5081_6120)"/>
<path d="M182.78 202.264H148.179C147.225 202.263 146.311 201.885 145.636 201.214C144.961 200.542 144.582 199.632 144.581 198.682V139.051C144.581 129.622 152.288 121.95 161.763 121.95H169.198C178.672 121.95 186.38 129.622 186.38 139.051V198.682C186.379 199.632 185.999 200.543 185.324 201.214C184.649 201.886 183.734 202.263 182.78 202.264ZM161.761 122.282C152.471 122.282 144.913 129.804 144.913 139.051V198.682C144.913 199.544 145.258 200.37 145.87 200.979C146.482 201.588 147.312 201.931 148.177 201.932H182.78C183.645 201.931 184.475 201.588 185.087 200.979C185.699 200.37 186.044 199.544 186.044 198.682V139.051C186.044 129.804 178.486 122.282 169.197 122.282H161.761Z" fill="white"/>
<path d="M103.619 202.264H69.0196C68.0655 202.263 67.1509 201.885 66.4763 201.214C65.8016 200.542 65.4221 199.632 65.4209 198.682V139.051C65.4209 129.622 73.1288 121.95 82.6026 121.95H90.0378C99.5126 121.95 107.22 129.622 107.22 139.051V198.682C107.219 199.632 106.839 200.543 106.164 201.215C105.489 201.886 104.574 202.264 103.619 202.264ZM82.6026 122.282C73.3127 122.282 65.7549 129.804 65.7549 139.051V198.682C65.7556 199.544 66.0998 200.37 66.7119 200.979C67.324 201.588 68.1539 201.931 69.0196 201.932H103.619C104.485 201.931 105.315 201.588 105.927 200.979C106.539 200.37 106.884 199.544 106.885 198.682V139.051C106.885 129.804 99.3259 122.282 90.0351 122.282H82.6026Z" fill="white"/>
<path d="M171.174 63.1416H159.288V82.4042H171.174V63.1416Z" fill="#0B437C"/>
<path d="M156.437 60.3476H174.242C174.467 60.3476 174.683 60.4366 174.842 60.5951C175.001 60.7536 175.091 60.9686 175.091 61.1927V66.2627H155.876V60.9031C155.876 60.8299 155.891 60.7575 155.919 60.6899C155.947 60.6223 155.988 60.5609 156.04 60.5093C156.093 60.4577 156.154 60.4168 156.222 60.3891C156.29 60.3613 156.363 60.3472 156.437 60.3476Z" fill="#0B437C"/>
<path d="M51.5725 120.198L127.826 61.9914L200.209 117.874C202.84 119.905 206.698 118.482 207.365 115.233L208.381 110.29L127.826 49.2159L49.8533 108.493C49.1741 109.01 48.6849 109.734 48.4616 110.555C48.2383 111.376 48.2933 112.248 48.618 113.034L51.5725 120.198Z" fill="#0B437C"/>
<path d="M219.4 127.331L150.823 149.119C150.222 149.309 149.571 149.254 149.01 148.967C148.45 148.679 148.028 148.182 147.835 147.585L132.132 98.6212C131.941 98.0236 131.997 97.3749 132.286 96.8176C132.575 96.2603 133.074 95.8399 133.674 95.6487L202.256 73.8589C202.856 73.6686 203.508 73.7231 204.068 74.0107C204.628 74.2982 205.051 74.7952 205.243 75.3926L220.946 124.356C221.041 124.653 221.076 124.965 221.049 125.274C221.023 125.584 220.935 125.886 220.792 126.162C220.648 126.438 220.451 126.684 220.213 126.884C219.974 127.085 219.697 127.236 219.4 127.331Z" fill="#0B437C"/>
<path d="M217.397 125.973L151.839 146.801C151.567 146.887 151.28 146.92 150.994 146.896C150.709 146.872 150.432 146.793 150.177 146.662C149.923 146.532 149.697 146.353 149.512 146.135C149.327 145.918 149.188 145.666 149.101 145.395L134.521 99.9354C134.345 99.3875 134.396 98.7926 134.661 98.2814C134.925 97.7703 135.383 97.3848 135.934 97.2097L201.49 76.3816C201.763 76.2949 202.05 76.2625 202.335 76.2863C202.62 76.31 202.898 76.3895 203.152 76.52C203.407 76.6506 203.633 76.8298 203.817 77.0473C204.002 77.2648 204.142 77.5164 204.229 77.7878L218.808 123.247C218.984 123.795 218.934 124.389 218.67 124.9C218.405 125.412 217.947 125.797 217.397 125.973Z" fill="white"/>
<path d="M159.644 104.869L160.725 108.312L154.96 110.104L156.973 116.532L152.36 117.966L147.103 101.209L157.943 97.839L159.095 101.512L152.867 103.447L153.874 106.661L159.644 104.869Z" fill="#0B437C"/>
<path d="M162.691 98.644C163.769 96.6204 165.63 95.1979 168.273 94.3764C170.916 93.555 173.26 93.6703 175.304 94.7225C177.347 95.7765 178.787 97.6347 179.622 100.297C180.458 102.959 180.336 105.302 179.256 107.326C178.178 109.349 176.318 110.772 173.675 111.593C171.032 112.415 168.688 112.3 166.643 111.247C164.6 110.193 163.161 108.335 162.325 105.673C161.49 103.011 161.612 100.668 162.691 98.644ZM167.055 104.199C168.063 107.413 169.874 108.614 172.488 107.801C175.102 106.989 175.905 104.976 174.897 101.761C173.889 98.5478 172.078 97.3472 169.464 98.1595C166.85 98.9719 166.047 100.987 167.055 104.204V104.199Z" fill="#0B437C"/>
<path d="M187.25 100.7L189.08 106.554L184.581 107.952L179.362 91.3082C181.281 90.4605 183.247 89.7234 185.251 89.1006C189.864 87.6672 192.711 88.672 193.791 92.1151C194.093 93.0839 194.073 94.124 193.733 95.0804C193.41 96.0709 192.791 96.94 191.959 97.5721L191.973 97.6186C192.5 97.7283 192.998 97.9453 193.437 98.2561C193.872 98.5657 194.345 99.0514 194.857 99.7132L197.958 103.788L193.23 105.258L190.432 101.342C190.094 100.856 189.758 100.54 189.425 100.394C189.092 100.249 188.71 100.241 188.28 100.373L187.25 100.7ZM186.205 97.3718L187.474 96.9774C188.258 96.7346 188.815 96.3472 189.146 95.8153C189.478 95.2835 189.539 94.6809 189.329 94.0076C188.872 92.5541 187.799 92.0902 186.108 92.616C185.68 92.742 185.267 92.9124 184.875 93.1242L186.205 97.3718Z" fill="#0B437C"/>
<path d="M163.414 128.036C161.621 127.753 159.925 127.86 158.326 128.357C157.603 128.582 157.097 128.878 156.808 129.245C156.519 129.612 156.438 130.002 156.567 130.416C156.768 131.058 157.412 131.361 158.499 131.327C161.114 131.22 163.054 131.461 164.32 132.05C165.586 132.639 166.437 133.63 166.873 135.023C167.4 136.707 167.217 138.17 166.324 139.413C165.43 140.656 163.807 141.643 161.456 142.375C160.376 142.695 159.256 142.861 158.13 142.867C156.897 142.889 155.865 142.761 155.035 142.481L154.956 138.6C155.911 138.893 156.902 139.051 157.901 139.071C158.911 139.092 159.801 138.984 160.57 138.745C161.955 138.315 162.491 137.603 162.178 136.608C161.977 135.965 161.206 135.659 159.865 135.689C157.418 135.744 155.576 135.468 154.34 134.861C153.104 134.255 152.27 133.263 151.839 131.885C151.365 130.367 151.569 128.985 152.451 127.74C153.333 126.494 154.842 125.537 156.98 124.871C159.255 124.163 161.299 123.948 163.11 124.227L163.414 128.036Z" fill="#0B437C"/>
<path d="M173.916 134.724L174.163 138.174L169.366 139.665L169.64 121.187L174.484 119.682L185.277 134.719L180.387 136.243L178.594 133.272L173.916 134.724ZM173.666 131.023L176.71 130.076L173.267 124.339L173.221 124.353L173.666 131.023Z" fill="#0B437C"/>
<path d="M186.966 115.804L191.035 128.775L197.839 126.66L199.028 130.448L187.499 134.032L182.242 117.275L186.966 115.804Z" fill="#0B437C"/>
<path d="M209.186 115.952L210.266 119.396L204.268 121.259L205.275 124.473L211.733 122.469L212.886 126.143L201.814 129.584L196.557 112.827L207.628 109.386L208.78 113.059L202.322 115.062L203.187 117.817L209.186 115.952Z" fill="#0B437C"/>
<path d="M148.159 98.3075C148.7 97.769 148.7 96.896 148.159 96.3575C147.618 95.8191 146.741 95.8191 146.2 96.3575C145.659 96.896 145.659 97.769 146.2 98.3075C146.741 98.846 147.618 98.8459 148.159 98.3075Z" fill="#051B32"/>
<path d="M190.991 84.1638C191.167 83.4227 190.705 82.6801 189.961 82.5052C189.216 82.3303 188.47 82.7892 188.294 83.5304C188.119 84.2715 188.58 85.0141 189.324 85.1891C190.069 85.364 190.815 84.905 190.991 84.1638Z" fill="#051B32"/>
<path d="M147.181 97.4865C147.109 97.4864 147.038 97.4741 146.971 97.4501C146.819 97.3941 146.694 97.2801 146.626 97.1332C146.557 96.9863 146.55 96.8183 146.605 96.666C147.388 94.5085 148.12 92.4111 148.829 90.382C152.189 80.7631 154.843 73.1695 158.612 71.3554C158.758 71.2881 158.926 71.2807 159.078 71.335C159.23 71.3892 159.354 71.5008 159.424 71.6455C159.495 71.7902 159.505 71.9566 159.453 72.1088C159.401 72.261 159.291 72.3868 159.147 72.4592C155.838 74.0475 153.128 81.804 149.991 90.7846C149.282 92.8164 148.548 94.9165 147.763 97.0803C147.72 97.1997 147.641 97.3028 147.537 97.3756C147.432 97.4483 147.308 97.4871 147.181 97.4865Z" fill="#051B32"/>
<path d="M189.497 84.0079C189.385 84.0073 189.275 83.9758 189.179 83.9168L187.924 83.161C176.66 76.377 176.445 76.2477 171.374 74.7915C171.22 74.7439 171.091 74.6382 171.015 74.497C170.938 74.3558 170.92 74.1904 170.965 74.0363C171.01 73.8821 171.113 73.7516 171.254 73.6726C171.394 73.5937 171.56 73.5726 171.715 73.6139C176.944 75.1148 177.38 75.378 188.562 82.1127L189.817 82.8686C189.931 82.9381 190.02 83.043 190.07 83.1673C190.119 83.2916 190.126 83.4286 190.09 83.5573C190.054 83.6861 189.976 83.7995 189.869 83.8804C189.762 83.9612 189.632 84.005 189.497 84.0052V84.0079Z" fill="#051B32"/>
<path d="M222.546 149.837C222.546 149.837 224.899 150.976 225.332 152.285C225.679 153.335 228.281 153.469 228.535 155.535C228.591 156.052 228.817 156.536 229.177 156.912C229.537 157.289 230.012 157.537 230.527 157.618C233.181 158.024 237.28 159.397 237.939 163.993C238.438 167.498 236.643 168.827 234.759 169.287C233.376 169.625 232.456 170.965 232.736 172.355C233.004 173.689 232.604 175.231 230.283 176.454C225.08 179.186 219.885 169.981 219.885 169.981L218.816 153.902L222.546 149.837Z" fill="#120878"/>
<path d="M194.24 146.028C194.24 146.028 204.627 162.379 216.978 165.538C216.978 165.538 214.571 172.36 212.714 173.141C212.714 173.141 197.518 160.522 193.613 148.351L194.24 146.028Z" fill="url(#paint5_linear_5081_6120)"/>
<path d="M243.929 250.616L244.266 253.37C244.296 253.624 244.412 253.861 244.595 254.042C244.778 254.223 245.017 254.337 245.273 254.365C246.159 254.466 247.583 254.57 248.975 254.424C249.119 254.407 249.258 254.36 249.381 254.284C249.504 254.208 249.608 254.106 249.687 253.985C249.766 253.864 249.817 253.727 249.836 253.585C249.855 253.442 249.843 253.297 249.799 253.159C249.46 252.097 248.838 250.5 247.942 249.56H244.873C244.738 249.56 244.606 249.588 244.483 249.642C244.36 249.696 244.251 249.776 244.162 249.876C244.072 249.976 244.005 250.094 243.965 250.221C243.925 250.349 243.913 250.483 243.929 250.616Z" fill="#120878"/>
<path d="M219.884 218.348L219.366 221.383C219.366 221.383 221.105 238.877 221.41 245.874C221.458 246.97 221.174 248.056 220.595 248.99L217.576 253.867L225.244 249.364L225.397 248.432L224.143 246.713L225.79 227.115C225.887 225.963 225.648 224.809 225.102 223.789L223.517 220.824L219.884 218.348Z" fill="url(#paint6_linear_5081_6120)"/>
<path d="M217.072 254.574H219.52C219.746 254.574 219.969 254.523 220.172 254.424C220.374 254.325 220.551 254.181 220.689 254.003C221.452 253.016 223.033 251.088 223.789 251.041C224.806 250.974 224.675 254.574 224.675 254.574H225.246L225.968 250.1C226.057 249.552 225.97 248.989 225.719 248.492C225.468 247.995 225.067 247.59 224.572 247.333C224.572 247.333 224.339 249.044 223.079 249.802C221.818 250.559 217.947 253.27 217.947 253.27C217.616 253.231 217.281 253.24 216.953 253.296C216.18 253.435 216.288 254.574 217.072 254.574Z" fill="#120878"/>
<path d="M230.388 219.79C230.388 219.79 240.553 238.982 242.169 243.364C243.785 247.745 244.35 251.402 244.372 251.748C244.406 252.289 245.082 252.807 246.945 252.807C247.907 252.807 248.378 252.424 248.609 252.052C248.704 251.895 248.758 251.717 248.765 251.534C248.773 251.351 248.733 251.169 248.65 251.006C248.062 249.822 246.196 246.036 245.504 244.319C244.681 242.269 242.905 232.98 241.931 229.748C240.958 226.516 239.857 223.014 235.618 219.787C235.619 219.79 232.708 216.953 230.388 219.79Z" fill="url(#paint7_linear_5081_6120)"/>
<path d="M223.966 188.342C221.344 177.282 227.987 171.028 227.987 171.028C223.795 167.02 216.159 165.199 216.159 165.199C216.159 165.199 208.871 170.501 209.735 174.652C210.242 177.085 214.859 189.224 214.859 189.224C214.859 189.224 219.126 191.235 223.966 188.342Z" fill="#D1E7FE"/>
<path d="M229.78 193.817C228.712 190.617 223.966 188.342 223.966 188.342C219.126 191.235 214.858 189.225 214.858 189.225C214.858 189.225 213.9 192.867 214.561 196.251C215.222 199.634 219.367 221.386 219.367 221.386C225.897 222.703 235.941 220.061 235.941 220.061C231.781 212.706 230.847 197.017 229.78 193.817Z" fill="#120878"/>
<path d="M220.921 157.892L223.053 167.424C223.257 168.264 222.489 168.126 221.636 167.966C220.239 167.703 218.439 167.164 217.838 166.082C217.779 165.971 217.742 165.849 217.729 165.724L216.814 159.114C216.778 158.858 216.827 158.598 216.953 158.373C217.079 158.148 217.275 157.97 217.512 157.866L219.279 157.086C219.438 157.015 219.612 156.98 219.787 156.984C219.961 156.987 220.133 157.028 220.29 157.105C220.447 157.182 220.585 157.293 220.694 157.429C220.803 157.565 220.881 157.723 220.921 157.892Z" fill="url(#paint8_linear_5081_6120)"/>
<path d="M227.987 171.032C227.987 171.032 242.866 181.628 229.89 192.762C229.89 192.762 229.395 193.319 228.421 193.609C227.93 193.754 226.476 194.849 225.739 195.42C225.683 195.463 225.619 195.495 225.55 195.511C225.481 195.528 225.41 195.531 225.34 195.518C225.27 195.506 225.204 195.479 225.145 195.439C225.087 195.4 225.037 195.348 225 195.288C224.939 195.19 224.903 195.079 224.896 194.964C224.89 194.849 224.912 194.734 224.962 194.63L226.803 190.753C227.051 190.523 227.373 190.388 227.711 190.374C228.05 190.359 228.382 190.465 228.649 190.674C228.731 190.738 228.826 190.783 228.928 190.806C229.03 190.829 229.136 190.829 229.238 190.806C229.34 190.783 229.435 190.738 229.518 190.674C229.6 190.609 229.666 190.527 229.712 190.434C230.719 188.4 232.609 182.42 224.856 175.661C224.716 175.537 224.622 175.369 224.588 175.185C224.555 175 224.585 174.81 224.673 174.645C225.215 173.599 226.46 171.53 227.987 171.032Z" fill="url(#paint9_linear_5081_6120)"/>
<path d="M216.839 149.203C216.839 149.203 214.569 150.733 213.594 154.627C212.619 158.522 214.203 159.918 215.829 159.832C217.454 159.747 219.809 159.247 221.849 156.453C223.89 153.66 219.813 147.335 216.839 149.203Z" fill="url(#paint10_linear_5081_6120)"/>
<path d="M219.791 154.882C219.791 154.882 220.623 149.303 215.968 150.156L215.027 151.131C215.027 151.131 212.748 148.581 215.27 146.647C217.792 144.713 221.29 145.211 223.23 148.725C225.171 152.24 225.868 154.709 224.246 156.893C222.624 159.077 221.403 157.204 221.403 157.204C221.403 157.204 222.147 155.314 221.53 154.503C220.912 153.691 220.116 154.974 220.116 154.974L219.791 154.882Z" fill="url(#paint11_linear_5081_6120)"/>
<path d="M220.427 155.361C220.427 155.361 220.838 152.489 222.311 153.31C223.784 154.13 221.781 155.992 220.977 156.626L220.427 155.361Z" fill="url(#paint12_linear_5081_6120)"/>
<path d="M194.311 149.394C194.28 149.731 195.54 149.964 195.941 148.526C195.831 147.902 195.635 145.168 195.154 144.743C192.592 142.481 188.025 139.936 188.025 139.936C187.515 140.713 188.185 141.224 188.185 141.224L190.465 142.755C190.227 143.539 189.879 144.233 189.84 145.123C189.817 145.805 190.059 146.469 190.514 146.978C190.972 147.495 191.579 148.162 192.129 148.667C193.171 149.63 194.311 149.394 194.311 149.394Z" fill="url(#paint13_linear_5081_6120)"/>
<path d="M193.073 148.279L193.421 148.137C193.376 148.024 192.281 145.377 191.751 144.827C191.551 144.619 191.454 144.439 191.462 144.295C191.473 144.206 191.514 144.124 191.579 144.061L193.425 145.044L194.239 146.314L194.558 146.111L193.689 144.759L191.528 143.609L191.431 143.688C191.212 143.87 191.1 144.052 191.086 144.272C191.071 144.529 191.199 144.795 191.48 145.091C191.878 145.501 192.764 147.536 193.073 148.279Z" fill="url(#paint14_linear_5081_6120)"/>
<path d="M81.3321 217.907C82.2085 217.702 82.7513 216.827 82.5445 215.955C82.3376 215.083 81.4594 214.543 80.583 214.748C79.7066 214.954 79.1638 215.828 79.3706 216.701C79.5775 217.573 80.4557 218.113 81.3321 217.907Z" fill="url(#paint15_linear_5081_6120)"/>
<path opacity="0.7" d="M34.8275 238.167C34.7572 238.167 34.6891 238.143 34.6345 238.099C31.5326 235.618 29.1445 232.761 27.5396 229.607C27.5187 229.57 27.5054 229.53 27.5006 229.489C27.4958 229.448 27.4995 229.406 27.5116 229.366C27.5236 229.326 27.5438 229.289 27.5708 229.257C27.5977 229.225 27.631 229.199 27.6685 229.18C27.706 229.161 27.7469 229.151 27.7887 229.148C27.8306 229.146 27.8724 229.152 27.9118 229.166C27.9511 229.181 27.9871 229.203 28.0175 229.232C28.0479 229.26 28.0721 229.295 28.0886 229.333C29.6551 232.41 31.9874 235.199 35.0197 237.621C35.07 237.66 35.1067 237.714 35.1247 237.776C35.1426 237.837 35.1409 237.902 35.1197 237.962C35.0985 238.023 35.059 238.075 35.0066 238.111C34.9542 238.148 34.8916 238.168 34.8275 238.167Z" fill="white"/>
<path opacity="0.7" d="M62.2846 247.035C54.5712 247.035 46.5724 245.116 40.1519 241.701C40.1162 241.682 40.0847 241.656 40.0591 241.625C40.0335 241.594 40.0142 241.558 40.0025 241.52C39.9908 241.481 39.9868 241.441 39.9907 241.401C39.9947 241.361 40.0065 241.322 40.0256 241.286C40.0446 241.251 40.0705 241.22 40.1017 241.194C40.133 241.169 40.1689 241.149 40.2076 241.138C40.2463 241.126 40.2869 241.122 40.3271 241.126C40.3673 241.13 40.4063 241.142 40.4419 241.161C47.1214 244.713 55.5228 246.621 63.5153 246.406C71.8316 246.18 78.9301 243.737 83.5023 239.528C83.532 239.501 83.5668 239.479 83.6047 239.465C83.6427 239.451 83.683 239.445 83.7234 239.447C83.7638 239.448 83.8035 239.458 83.8402 239.475C83.8769 239.491 83.91 239.515 83.9374 239.545C83.9649 239.574 83.9862 239.609 84.0002 239.647C84.0142 239.684 84.0206 239.725 84.0191 239.765C84.0175 239.805 84.008 239.844 83.9911 239.881C83.9742 239.918 83.9502 239.95 83.9205 239.978C79.2385 244.288 71.9972 246.788 63.5326 247.019C63.1172 247.029 62.7012 247.035 62.2846 247.035Z" fill="white"/>
</g>
<defs>
<linearGradient id="paint0_linear_5081_6120" x1="109.409" y1="148.835" x2="139.819" y2="148.835" gradientUnits="userSpaceOnUse">
<stop stop-color="#DAE3FE"/>
<stop offset="1" stop-color="#E9EFFD"/>
</linearGradient>
<linearGradient id="paint1_linear_5081_6120" x1="113.026" y1="180.308" x2="123.167" y2="180.308" gradientUnits="userSpaceOnUse">
<stop stop-color="#DAE3FE"/>
<stop offset="1" stop-color="#E9EFFD"/>
</linearGradient>
<linearGradient id="paint2_linear_5081_6120" x1="125.834" y1="180.308" x2="135.974" y2="180.308" gradientUnits="userSpaceOnUse">
<stop stop-color="#DAE3FE"/>
<stop offset="1" stop-color="#E9EFFD"/>
</linearGradient>
<linearGradient id="paint3_linear_5081_6120" x1="113.026" y1="206.637" x2="123.167" y2="206.637" gradientUnits="userSpaceOnUse">
<stop stop-color="#DAE3FE"/>
<stop offset="1" stop-color="#E9EFFD"/>
</linearGradient>
<linearGradient id="paint4_linear_5081_6120" x1="125.834" y1="206.637" x2="135.974" y2="206.637" gradientUnits="userSpaceOnUse">
<stop stop-color="#DAE3FE"/>
<stop offset="1" stop-color="#E9EFFD"/>
</linearGradient>
<linearGradient id="paint5_linear_5081_6120" x1="201.998" y1="153.724" x2="220.667" y2="179.649" gradientUnits="userSpaceOnUse">
<stop stop-color="#FEBBBA"/>
<stop offset="1" stop-color="#FF928E"/>
</linearGradient>
<linearGradient id="paint6_linear_5081_6120" x1="218.913" y1="275.258" x2="227.351" y2="176.174" gradientUnits="userSpaceOnUse">
<stop stop-color="#FEBBBA"/>
<stop offset="1" stop-color="#FF928E"/>
</linearGradient>
<linearGradient id="paint7_linear_5081_6120" x1="236.046" y1="276.732" x2="244.487" y2="177.623" gradientUnits="userSpaceOnUse">
<stop stop-color="#FEBBBA"/>
<stop offset="1" stop-color="#FF928E"/>
</linearGradient>
<linearGradient id="paint8_linear_5081_6120" x1="217.979" y1="177.597" x2="219.565" y2="165.946" gradientUnits="userSpaceOnUse">
<stop stop-color="#FEBBBA"/>
<stop offset="1" stop-color="#FF928E"/>
</linearGradient>
<linearGradient id="paint9_linear_5081_6120" x1="224.574" y1="183.275" x2="235.201" y2="183.275" gradientUnits="userSpaceOnUse">
<stop stop-color="#FEBBBA"/>
<stop offset="1" stop-color="#FF928E"/>
</linearGradient>
<linearGradient id="paint10_linear_5081_6120" x1="215.128" y1="163.6" x2="223.922" y2="136.62" gradientUnits="userSpaceOnUse">
<stop stop-color="#FEBBBA"/>
<stop offset="1" stop-color="#FF928E"/>
</linearGradient>
<linearGradient id="paint11_linear_5081_6120" x1="213.87" y1="141.896" x2="224.051" y2="157.686" gradientUnits="userSpaceOnUse">
<stop stop-color="#09005D"/>
<stop offset="1" stop-color="#1A0F91"/>
</linearGradient>
<linearGradient id="paint12_linear_5081_6120" x1="218.367" y1="164.656" x2="227.16" y2="137.676" gradientUnits="userSpaceOnUse">
<stop stop-color="#FEBBBA"/>
<stop offset="1" stop-color="#FF928E"/>
</linearGradient>
<linearGradient id="paint13_linear_5081_6120" x1="199.743" y1="155.348" x2="218.412" y2="181.273" gradientUnits="userSpaceOnUse">
<stop stop-color="#FEBBBA"/>
<stop offset="1" stop-color="#FF928E"/>
</linearGradient>
<linearGradient id="paint14_linear_5081_6120" x1="194.558" y1="145.944" x2="191.085" y2="145.944" gradientUnits="userSpaceOnUse">
<stop stop-color="#FEBBBA"/>
<stop offset="1" stop-color="#FF928E"/>
</linearGradient>
<linearGradient id="paint15_linear_5081_6120" x1="78.2793" y1="216.665" x2="83.318" y2="214.056" gradientUnits="userSpaceOnUse">
<stop stop-color="#2B3582"/>
<stop offset="0.65" stop-color="#150E42"/>
</linearGradient>
<clipPath id="clip0_5081_6120">
<rect width="255" height="255" fill="white"/>
</clipPath>
</defs>
</svg>
