<svg width="24" height="24" viewBox="0 0 24 24" fill="none" xmlns="http://www.w3.org/2000/svg">
<path d="M16.4531 8.24273C12.8585 6.07082 14.5442 3.00531 14.6165 2.87789C14.7214 2.69656 14.7211 2.47348 14.6156 2.29246C14.5102 2.11145 14.3156 2 14.105 2C12.2546 2 10.8056 2.52211 9.79835 3.55187C8.07715 5.31145 8.157 8.05 8.19106 9.21945C8.19484 9.34898 8.1981 9.46094 8.1981 9.54406C8.1981 10.4123 8.33837 11.2139 8.46215 11.9212C8.54192 12.3769 8.61079 12.7705 8.62302 13.08C8.63612 13.4112 8.57523 13.4871 8.57264 13.4902C8.56394 13.5004 8.49157 13.5387 8.29589 13.5387C8.07271 13.5387 7.90818 13.4663 7.76241 13.3039C7.19301 12.6699 7.15364 10.9386 7.26252 9.99664C7.28199 9.83055 7.22908 9.66414 7.1171 9.5393C7.00516 9.41445 6.84483 9.34305 6.67649 9.34305C5.14464 9.34305 4 11.8309 4 14.0552C4 15.1009 4.21177 16.1252 4.62945 17.0998C5.03325 18.0419 5.60905 18.8922 6.34093 19.627C7.86518 21.1572 9.87485 22 11.9998 22C14.1333 22 16.1424 21.1691 17.6572 19.6605C19.168 18.1559 20 16.1651 20 14.0552C20 11.3629 17.8789 9.1041 16.4531 8.24273ZM11.9998 20.8281C8.30312 20.8281 5.18004 17.7265 5.18004 14.0552C5.18004 13.1623 5.39457 12.2251 5.76859 11.4839C5.85595 11.3107 5.94559 11.1621 6.03405 11.037C6.04393 12.0037 6.19811 13.3214 6.88075 14.0828C7.24899 14.4934 7.73833 14.7105 8.29593 14.7105C8.81682 14.7105 9.21377 14.5537 9.47565 14.2445C9.96528 13.6664 9.81499 12.8077 9.62477 11.7205C9.50917 11.0599 9.37815 10.3112 9.37815 9.54402C9.37815 9.44391 9.37465 9.32418 9.37063 9.18547C9.33834 8.07773 9.27112 5.7727 10.6448 4.36844C11.2614 3.73801 12.1223 3.35434 13.2115 3.22305C13.0885 3.62852 12.9825 4.14324 12.9784 4.71957C12.9694 5.98941 13.4584 7.80508 15.8399 9.24391C16.992 9.94004 18.82 11.8618 18.82 14.0552C18.82 17.7898 15.7604 20.8281 11.9998 20.8281Z" fill="#16161A"/>
</svg>
