<svg width="14" height="14" viewBox="0 0 14 14" fill="none" xmlns="http://www.w3.org/2000/svg">
<path d="M6.99935 1.16667C3.78518 1.16667 1.16602 3.78584 1.16602 7.00001C1.16602 10.2142 3.78518 12.8333 6.99935 12.8333C10.2135 12.8333 12.8327 10.2142 12.8327 7.00001C12.8327 3.78584 10.2135 1.16667 6.99935 1.16667ZM8.95935 8.34167C9.12852 8.51084 9.12852 8.79084 8.95935 8.96001C8.87185 9.04751 8.76102 9.08834 8.65018 9.08834C8.53935 9.08834 8.42852 9.04751 8.34102 8.96001L6.99935 7.61834L5.65768 8.96001C5.57018 9.04751 5.45935 9.08834 5.34852 9.08834C5.23768 9.08834 5.12685 9.04751 5.03935 8.96001C4.87018 8.79084 4.87018 8.51084 5.03935 8.34167L6.38102 7.00001L5.03935 5.65834C4.87018 5.48917 4.87018 5.20917 5.03935 5.04001C5.20852 4.87084 5.48852 4.87084 5.65768 5.04001L6.99935 6.38167L8.34102 5.04001C8.51018 4.87084 8.79018 4.87084 8.95935 5.04001C9.12852 5.20917 9.12852 5.48917 8.95935 5.65834L7.61768 7.00001L8.95935 8.34167Z" fill="#D13329"/>
</svg>
