<svg width="24" height="24" viewBox="0 0 24 24" fill="none" xmlns="http://www.w3.org/2000/svg">
<path d="M19.2179 20.1907C18.6173 20.4909 18.0992 20.7497 16.9956 20.7497C15.8915 20.7497 15.3733 20.4903 14.7728 20.1907C14.1246 19.8665 13.3897 19.4998 11.9914 19.4998C10.5949 19.4998 9.86067 19.8672 9.21371 20.1907C8.61437 20.4909 8.09676 20.7497 6.99511 20.7497C5.89405 20.7497 5.37649 20.4909 4.7771 20.1907C4.13014 19.8672 3.39649 19.4998 2 19.4998V20.7497C3.10106 20.7497 3.61862 21.0085 4.21801 21.3088C4.86497 21.6323 5.59862 21.9997 6.99511 21.9997C8.3916 21.9997 9.12584 21.6323 9.7728 21.3088C10.3721 21.0085 10.8897 20.7497 11.9914 20.7497C13.0949 20.7497 13.6131 21.0085 14.2137 21.3088C14.8619 21.6329 15.5967 21.9997 16.9956 21.9997C18.3939 21.9997 19.1288 21.6329 19.777 21.3088C20.3776 21.0091 20.8958 20.7497 21.9999 20.7497V19.4998C20.601 19.4998 19.8661 19.8666 19.2179 20.1907Z" fill="#16161A"/>
<path d="M2.62507 13.2499H4.50004V18.8081C4.59244 18.8526 4.68931 18.8969 4.77714 18.9408C5.09048 19.0979 5.38633 19.2409 5.75003 19.3441V12.6249C5.75003 12.2794 5.47048 11.9999 5.12503 11.9999H4.06795L12 3.53865L19.9321 11.9999H18.875C18.5295 11.9999 18.25 12.2794 18.25 12.6249V19.3426C18.6115 19.2394 18.9057 19.0968 19.218 18.9407C19.3073 18.896 19.4058 18.8511 19.5 18.8058V13.2499H21.375C21.624 13.2499 21.8492 13.1022 21.9487 12.8733C22.0476 12.6451 22.0012 12.379 21.8309 12.1977L19.5 9.71137V3.24998H15.75V5.71137L12.4559 2.19776C12.3373 2.07119 12.1681 1.99979 11.999 2C11.8306 2.00021 11.6623 2.07165 11.5441 2.19776L2.16915 12.1977C1.99886 12.379 1.95247 12.6451 2.05137 12.8733C2.15082 13.1022 2.37607 13.2499 2.62507 13.2499ZM17 4.49996H18.25V8.37804L17 7.04475V4.49996Z" fill="#16161A"/>
</svg>
