<svg width="20" height="20" viewBox="0 0 20 20" fill="none" xmlns="http://www.w3.org/2000/svg">
<path fill-rule="evenodd" clip-rule="evenodd" d="M5.29922 2.94872C2.94879 2.94872 2.94879 3.12649 2.94879 5.29914V5.32051C2.94879 6.26666 2.94879 6.95042 3.18042 7.23931C3.40691 7.51966 4.07956 7.64957 5.29922 7.64957C6.51888 7.64957 7.19153 7.5188 7.41802 7.23846C7.64965 6.95042 7.64965 6.26666 7.64965 5.31966C7.64965 3.12649 7.64965 2.94872 5.29922 2.94872ZM5.29923 8.93162C3.8582 8.93162 2.777 8.78034 2.18299 8.04273C1.66675 7.40256 1.66675 6.52906 1.66675 5.32051L2.30777 5.29914H1.66675C1.66675 2.84615 1.82145 1.66666 5.29923 1.66666C8.777 1.66666 8.93171 2.84615 8.93171 5.29914C8.93171 6.5282 8.93171 7.40256 8.41547 8.04273C7.82145 8.78034 6.74025 8.93162 5.29923 8.93162Z" fill="#16161A"/>
<path fill-rule="evenodd" clip-rule="evenodd" d="M14.7009 2.94872C12.3504 2.94872 12.3504 3.12649 12.3504 5.29914V5.32051C12.3504 6.26666 12.3504 6.95042 12.5821 7.23931C12.8085 7.51966 13.4812 7.64957 14.7009 7.64957C15.9205 7.64957 16.5932 7.5188 16.8197 7.23846C17.0513 6.95042 17.0513 6.26666 17.0513 5.31966C17.0513 3.12649 17.0513 2.94872 14.7009 2.94872ZM14.7008 8.93162C13.2598 8.93162 12.1786 8.78034 11.5846 8.04273C11.0684 7.40256 11.0684 6.52906 11.0684 5.32051L11.7094 5.29914H11.0684C11.0684 2.84615 11.2231 1.66666 14.7008 1.66666C18.1786 1.66666 18.3333 2.84615 18.3333 5.29914C18.3333 6.5282 18.3333 7.40256 17.8171 8.04273C17.2231 8.78034 16.1419 8.93162 14.7008 8.93162Z" fill="#16161A"/>
<path fill-rule="evenodd" clip-rule="evenodd" d="M5.29922 12.3504C2.94879 12.3504 2.94879 12.5282 2.94879 14.7009V14.7222C2.94879 15.6684 2.94879 16.3521 3.18042 16.641C3.40691 16.9214 4.07956 17.0513 5.29922 17.0513C6.51888 17.0513 7.19153 16.9205 7.41802 16.6402C7.64965 16.3521 7.64965 15.6684 7.64965 14.7214C7.64965 12.5282 7.64965 12.3504 5.29922 12.3504ZM5.29923 18.3333C3.8582 18.3333 2.777 18.1821 2.18299 17.4444C1.66675 16.8043 1.66675 15.9308 1.66675 14.7222L2.30777 14.7009H1.66675C1.66675 12.2479 1.82145 11.0684 5.29923 11.0684C8.777 11.0684 8.93171 12.2479 8.93171 14.7009C8.93171 15.9299 8.93171 16.8043 8.41547 17.4444C7.82145 18.1821 6.74025 18.3333 5.29923 18.3333Z" fill="#16161A"/>
<path fill-rule="evenodd" clip-rule="evenodd" d="M14.7009 12.3504C12.3504 12.3504 12.3504 12.5282 12.3504 14.7009V14.7222C12.3504 15.6684 12.3504 16.3521 12.5821 16.641C12.8085 16.9214 13.4812 17.0513 14.7009 17.0513C15.9205 17.0513 16.5932 16.9205 16.8197 16.6402C17.0513 16.3521 17.0513 15.6684 17.0513 14.7214C17.0513 12.5282 17.0513 12.3504 14.7009 12.3504ZM14.7008 18.3333C13.2598 18.3333 12.1786 18.1821 11.5846 17.4444C11.0684 16.8043 11.0684 15.9308 11.0684 14.7222L11.7094 14.7009H11.0684C11.0684 12.2479 11.2231 11.0684 14.7008 11.0684C18.1786 11.0684 18.3333 12.2479 18.3333 14.7009C18.3333 15.9299 18.3333 16.8043 17.8171 17.4444C17.2231 18.1821 16.1419 18.3333 14.7008 18.3333Z" fill="#16161A"/>
</svg>
