<svg width="24" height="24" viewBox="0 0 24 24" fill="none" xmlns="http://www.w3.org/2000/svg">
<path d="M19.0899 12.5899C18.9299 12.5899 18.7699 12.5399 18.6299 12.4299C14.5999 9.3199 9.38993 9.3199 5.35993 12.4299C5.02993 12.6799 4.55993 12.6199 4.30993 12.2999C4.05993 11.9699 4.11994 11.4999 4.43994 11.2499C9.02994 7.6999 14.9599 7.6999 19.5399 11.2499C19.8699 11.4999 19.9299 11.9699 19.6699 12.2999C19.5399 12.4899 19.3199 12.5899 19.0899 12.5899Z" fill="#16161A"/>
<path d="M22.0005 9.1099C21.8405 9.1099 21.6805 9.05993 21.5405 8.94993C15.7405 4.46993 8.25052 4.46993 2.46053 8.94993C2.13053 9.19993 1.66052 9.13992 1.41052 8.81992C1.16052 8.48992 1.22051 8.0199 1.54051 7.7699C7.89051 2.8599 16.1005 2.8599 22.4605 7.7699C22.7905 8.0199 22.8505 8.48992 22.5905 8.81992C22.4505 9.00992 22.2205 9.1099 22.0005 9.1099Z" fill="#16161A"/>
<path d="M17.2096 16.24C17.0496 16.24 16.8896 16.19 16.7496 16.08C13.8696 13.85 10.1396 13.85 7.24958 16.08C6.91958 16.33 6.44958 16.27 6.19958 15.95C5.94958 15.62 6.00958 15.15 6.32958 14.9C9.76958 12.24 14.2196 12.24 17.6596 14.9C17.9896 15.15 18.0496 15.62 17.7896 15.95C17.6496 16.14 17.4296 16.24 17.2096 16.24Z" fill="#16161A"/>
<path d="M14.6002 19.9C14.4402 19.9 14.2802 19.85 14.1402 19.74C12.8402 18.73 11.1502 18.73 9.85017 19.74C9.52017 19.99 9.05017 19.93 8.80017 19.61C8.55017 19.28 8.61016 18.81 8.93016 18.56C10.7902 17.12 13.1902 17.12 15.0502 18.56C15.3802 18.81 15.4402 19.28 15.1802 19.61C15.0502 19.79 14.8302 19.9 14.6002 19.9Z" fill="#16161A"/>
</svg>
