<svg width="20" height="20" viewBox="0 0 20 20" fill="none" xmlns="http://www.w3.org/2000/svg">
<path d="M13.3332 9.99999C13.3338 10.1097 13.3128 10.2184 13.2713 10.3199C13.2298 10.4214 13.1687 10.5138 13.0915 10.5917L8.0915 15.5917C7.93458 15.7486 7.72175 15.8367 7.49983 15.8367C7.27791 15.8367 7.06508 15.7486 6.90816 15.5917C6.75124 15.4347 6.66309 15.2219 6.66309 15C6.66309 14.7781 6.75124 14.5652 6.90816 14.4083L11.3248 9.99999L6.9165 5.59165C6.77997 5.43223 6.70863 5.22717 6.71674 5.01744C6.72484 4.80771 6.81178 4.60876 6.96019 4.46035C7.1086 4.31194 7.30755 4.22499 7.51728 4.21689C7.72701 4.20879 7.93208 4.28013 8.0915 4.41665L13.0915 9.41665C13.2455 9.57187 13.3322 9.78137 13.3332 9.99999Z" fill="#74778B"/>
</svg>
