<svg width="24" height="24" viewBox="0 0 24 24" fill="none" xmlns="http://www.w3.org/2000/svg">
<path d="M23.1505 13.9698C23.1429 14.0119 23.1376 14.0545 23.1296 14.0967L23.0886 13.855C23.111 13.8926 23.1296 13.9317 23.1505 13.9698C23.2744 13.2955 23.3394 12.6053 23.3394 11.9154C23.3394 10.3856 23.0399 8.90142 22.4481 7.50425C21.8773 6.1546 21.0605 4.94253 20.0191 3.90188C18.9792 2.86122 17.7663 2.04444 16.4175 1.47356C15.0207 0.88254 13.5365 0.583039 12.0067 0.583039C11.2856 0.583039 10.5635 0.650693 9.86073 0.78562C9.85921 0.786 9.85731 0.786 9.85541 0.786381C9.89494 0.807285 9.93485 0.825909 9.97362 0.847573L9.73531 0.810326C9.77522 0.802724 9.8155 0.794362 9.85541 0.786381C8.89116 0.273656 7.80679 0 6.70913 0C4.91706 0 3.23218 0.697823 1.965 1.96538C0.698202 3.23256 0 4.91744 0 6.70951C0 7.85012 0.29342 8.97135 0.844152 9.96221C0.851374 9.92117 0.856315 9.87974 0.864296 9.83869L0.905345 10.0762C0.884061 10.039 0.865437 10.0002 0.844152 9.96221C0.73241 10.6042 0.673497 11.2602 0.673497 11.9154C0.673497 13.4456 0.972999 14.9294 1.56478 16.327C2.1349 17.677 2.95206 18.8883 3.99234 19.929C5.03375 20.9696 6.24506 21.7876 7.59547 22.3569C8.99226 22.9491 10.4768 23.249 12.0067 23.249C12.6725 23.249 13.34 23.1882 13.9914 23.0726C13.9534 23.0513 13.9146 23.0319 13.8759 23.0095L14.118 23.0521C14.0762 23.0601 14.034 23.065 13.9914 23.0726C14.9952 23.6404 16.1316 23.9422 17.292 23.9422C19.0837 23.9422 20.7678 23.2455 22.035 21.9776C23.3026 20.7112 24 19.0259 24 17.2339C24 16.0894 23.7051 14.9644 23.1505 13.9698ZM12.0519 18.856C8.02572 18.856 6.22453 16.8766 6.22453 15.3931C6.22453 14.6322 6.78629 14.099 7.5605 14.099C9.28339 14.099 8.83718 16.5729 12.0519 16.5729C13.6976 16.5729 14.6064 15.6793 14.6064 14.7649C14.6064 14.2149 14.335 13.6053 13.2514 13.3381L9.67031 12.4441C6.78629 11.7208 6.26292 10.1618 6.26292 8.69618C6.26292 5.65327 9.12794 4.51076 11.8185 4.51076C14.297 4.51076 17.2187 5.88056 17.2187 7.70607C17.2187 8.48827 16.5414 8.94323 15.7675 8.94323C14.297 8.94323 14.5676 6.90791 11.6057 6.90791C10.1359 6.90791 9.32178 7.57343 9.32178 8.5259C9.32178 9.47647 10.4825 9.78016 11.4905 10.0097L14.1412 10.5981C17.0446 11.245 17.7808 12.9401 17.7808 14.5368C17.7808 17.0096 15.8827 18.856 12.0519 18.856ZM13.8759 23.0095C13.9146 23.0319 13.9534 23.0513 13.9914 23.0726C14.034 23.065 14.0762 23.0601 14.118 23.0521L13.8759 23.0095ZM23.1296 14.0967C23.1376 14.0545 23.1429 14.0119 23.1505 13.9698C23.1296 13.9317 23.111 13.8926 23.0886 13.855L23.1296 14.0967ZM0.864296 9.83869C0.856315 9.87974 0.851374 9.92117 0.844152 9.96221C0.865437 10.0002 0.884061 10.039 0.905345 10.0762L0.864296 9.83869ZM9.97362 0.847573C9.93485 0.825909 9.89494 0.807285 9.85541 0.786381C9.8155 0.794362 9.77522 0.802724 9.73531 0.810326L9.97362 0.847573Z" fill="#00AFF0"/>
</svg>
