<svg width="24" height="24" viewBox="0 0 24 24" fill="none" xmlns="http://www.w3.org/2000/svg">
<path d="M20.785 3.56712C20.4983 3.26997 20.0334 3.26997 19.7468 3.56712L16.4368 6.99769C15.1429 4.6916 13.8604 2.74587 13.5821 2.3284C13.4449 2.12276 13.2191 2 12.9779 2C12.7367 2 12.5109 2.12276 12.3739 2.3285C11.7749 3.22756 6.5215 11.2104 6.5215 14.6241C6.5215 15.4159 6.6557 16.1757 6.90051 16.8812L3.21503 20.701C2.92832 20.9982 2.92832 21.48 3.21503 21.7771C3.35833 21.9256 3.54627 22 3.73412 22C3.92196 22 4.1099 21.9257 4.2532 21.7771L7.59521 18.3134C8.75241 20.1207 10.7327 21.3153 12.978 21.3153C16.539 21.3153 19.4362 18.3137 19.4362 14.6241C19.4362 13.1038 18.394 10.6776 17.1849 8.37428L20.785 4.64311C21.0717 4.34606 21.0717 3.86417 20.785 3.56712ZM7.98978 14.6241C7.98978 12.4111 11.1764 6.95021 12.978 4.12206C13.6559 5.18557 14.5298 6.62171 15.3562 8.11731L8.08865 15.6497C8.02414 15.3181 7.98978 14.9752 7.98978 14.6241ZM17.9678 14.6241C17.9678 17.4746 15.7294 19.7935 12.9779 19.7935C11.1357 19.7935 9.52472 18.7523 8.66079 17.2088L16.0966 9.50232C17.1434 11.5336 17.9678 13.4984 17.9678 14.6241Z" fill="#16161A"/>
</svg>
