<svg width="20" height="20" viewBox="0 0 20 20" fill="none" xmlns="http://www.w3.org/2000/svg">
<path fill-rule="evenodd" clip-rule="evenodd" d="M9.99998 8.20341C8.93597 8.20341 8.07117 9.00962 8.07117 10.0006C8.07117 10.9909 8.93597 11.7963 9.99998 11.7963C11.064 11.7963 11.9296 10.9909 11.9296 10.0006C11.9296 9.00962 11.064 8.20341 9.99998 8.20341ZM9.99992 12.914C8.2743 12.914 6.87109 11.6071 6.87109 10.0006C6.87109 8.39342 8.2743 7.08575 9.99992 7.08575C11.7255 7.08575 13.1295 8.39342 13.1295 10.0006C13.1295 11.6071 11.7255 12.914 9.99992 12.914Z" fill="#1786F9"/>
<mask id="mask0_4155_9794" style="mask-type:luminance" maskUnits="userSpaceOnUse" x="2" y="4" width="16" height="13">
<path fill-rule="evenodd" clip-rule="evenodd" d="M2 4.00018H18V16.0002H2V4.00018Z" fill="white"/>
</mask>
<g mask="url(#mask0_4155_9794)">
<path fill-rule="evenodd" clip-rule="evenodd" d="M3.2558 10C4.74381 13.0617 7.25023 14.882 9.99985 14.8827C12.7495 14.882 15.2559 13.0617 16.7439 10C15.2559 6.93912 12.7495 5.11881 9.99985 5.11807C7.25103 5.11881 4.74381 6.93912 3.2558 10ZM10.0015 16.0003H9.99826H9.99746C6.68864 15.998 3.71741 13.838 2.0486 10.2205C1.9838 10.0796 1.9838 9.92019 2.0486 9.77936C3.71741 6.16259 6.68944 4.00252 9.99746 4.00028C9.99906 3.99954 9.99906 3.99954 9.99986 4.00028C10.0015 3.99954 10.0015 3.99954 10.0023 4.00028C13.3111 4.00252 16.2823 6.16259 17.9511 9.77936C18.0167 9.92019 18.0167 10.0796 17.9511 10.2205C16.2831 13.838 13.3111 15.998 10.0023 16.0003H10.0015Z" fill="#1786F9"/>
</g>
</svg>
