<svg width="20" height="20" viewBox="0 0 20 20" fill="none" xmlns="http://www.w3.org/2000/svg">
<path d="M10.0001 18.0417C9.74175 18.0417 9.49175 18.0083 9.28342 17.9333C6.10008 16.8417 1.04175 12.9667 1.04175 7.24166C1.04175 4.32499 3.40008 1.95833 6.30008 1.95833C7.70842 1.95833 9.02508 2.50833 10.0001 3.49166C10.9751 2.50833 12.2918 1.95833 13.7001 1.95833C16.6001 1.95833 18.9584 4.33333 18.9584 7.24166C18.9584 12.975 13.9001 16.8417 10.7167 17.9333C10.5084 18.0083 10.2584 18.0417 10.0001 18.0417ZM6.30008 3.20833C4.09175 3.20833 2.29175 5.01666 2.29175 7.24166C2.29175 12.9333 7.76675 16.1 9.69175 16.7583C9.84175 16.8083 10.1667 16.8083 10.3167 16.7583C12.2334 16.1 17.7168 12.9417 17.7168 7.24166C17.7168 5.01666 15.9168 3.20833 13.7084 3.20833C12.4418 3.20833 11.2667 3.79999 10.5084 4.82499C10.2751 5.14166 9.74175 5.14166 9.50842 4.82499C8.73342 3.79166 7.56675 3.20833 6.30008 3.20833Z" fill="#74778B"/>
</svg>
