<svg width="20" height="20" viewBox="0 0 20 20" fill="none" xmlns="http://www.w3.org/2000/svg">
<path fill-rule="evenodd" clip-rule="evenodd" d="M14.352 5.5172C14.384 5.57159 14.44 5.61043 14.512 5.61043C16.432 5.61043 18 7.13319 18 8.99778V13.6127C18 15.4772 16.432 17 14.512 17H5.488C3.56 17 2 15.4772 2 13.6127V8.99778C2 7.13319 3.56 5.61043 5.488 5.61043C5.552 5.61043 5.616 5.57936 5.64 5.5172L5.688 5.42397C5.71558 5.36754 5.74389 5.30957 5.77262 5.25073C5.97728 4.83162 6.2037 4.36795 6.344 4.09545C6.712 3.39623 7.336 3.00777 8.112 3H11.88C12.656 3.00777 13.288 3.39623 13.656 4.09545C13.782 4.3402 13.974 4.73445 14.159 5.11442C14.1972 5.19279 14.2351 5.27056 14.272 5.34628L14.352 5.5172ZM13.7681 8.50057C13.7681 8.88902 14.0881 9.19979 14.4881 9.19979C14.8881 9.19979 15.2161 8.88902 15.2161 8.50057C15.2161 8.11211 14.8881 7.79357 14.4881 7.79357C14.0881 7.79357 13.7681 8.11211 13.7681 8.50057ZM8.61602 9.70477C8.99202 9.33962 9.48002 9.14539 10 9.14539C10.52 9.14539 11.008 9.33962 11.376 9.697C11.744 10.0544 11.944 10.5283 11.944 11.0333C11.936 12.0744 11.072 12.9212 10 12.9212C9.48002 12.9212 8.99202 12.727 8.62402 12.3696C8.25602 12.0122 8.05602 11.5383 8.05602 11.0333V11.0255C8.04802 10.5361 8.24802 10.0622 8.61602 9.70477ZM12.2161 13.1931C11.6481 13.7447 10.8641 14.0866 10.0001 14.0866C9.1601 14.0866 8.3761 13.7681 7.7761 13.1931C7.1841 12.6104 6.8561 11.8491 6.8561 11.0333C6.8481 10.2253 7.1761 9.46394 7.7681 8.88126C8.3681 8.29857 9.1601 7.98004 10.0001 7.98004C10.8401 7.98004 11.6321 8.29857 12.2241 8.87349C12.8161 9.45617 13.1441 10.2253 13.1441 11.0333C13.1361 11.8801 12.7841 12.6415 12.2161 13.1931Z" fill="#74778B"/>
</svg>
