<svg width="20" height="20" viewBox="0 0 20 20" fill="none" xmlns="http://www.w3.org/2000/svg">
<mask id="mask0_4148_7948" style="mask-type:luminance" maskUnits="userSpaceOnUse" x="2" y="1" width="16" height="15">
<path fill-rule="evenodd" clip-rule="evenodd" d="M2.91675 1.66666H17.0834V15.1147H2.91675V1.66666Z" fill="white"/>
</mask>
<g mask="url(#mask0_4148_7948)">
<path fill-rule="evenodd" clip-rule="evenodd" d="M9.99898 2.82946C7.32218 2.82946 5.45647 4.95194 5.45647 6.85659C5.45647 8.46822 5.01455 9.21318 4.62394 9.87055C4.31069 10.3985 4.06331 10.8155 4.06331 11.7217C4.19121 13.1837 5.14475 13.9519 9.99898 13.9519C14.8264 13.9519 15.8098 13.1496 15.937 11.6713C15.9347 10.8155 15.6873 10.3985 15.374 9.87055C14.9834 9.21318 14.5415 8.46822 14.5415 6.85659C14.5415 4.95194 12.6758 2.82946 9.99898 2.82946ZM9.99897 15.1147C6.41766 15.1147 3.18099 14.8589 2.91676 11.7713C2.91446 10.4938 3.2997 9.84418 3.63976 9.27209C3.98365 8.69225 4.30762 8.14573 4.30762 6.85659C4.30762 4.35039 6.59458 1.66666 9.99897 1.66666C13.4034 1.66666 15.6903 4.35039 15.6903 6.85659C15.6903 8.14573 16.0143 8.69225 16.3582 9.27209C16.6982 9.84418 17.0835 10.4938 17.0835 11.7217C16.8162 14.8589 13.5803 15.1147 9.99897 15.1147Z" fill="#16161A"/>
</g>
<path fill-rule="evenodd" clip-rule="evenodd" d="M9.96154 18.3333H9.96C9.10144 18.3326 8.28882 17.9496 7.67228 17.2543C7.46013 17.0163 7.47927 16.6481 7.71517 16.4341C7.95107 16.2186 8.3141 16.238 8.52625 16.4775C8.92298 16.9248 9.4323 17.1706 9.96077 17.1706H9.96154C10.4923 17.1706 11.0039 16.9248 11.4014 16.4768C11.6143 16.2388 11.9774 16.2194 12.2125 16.4341C12.4484 16.6489 12.4675 17.0171 12.2554 17.2551C11.6365 17.9504 10.8224 18.3333 9.96154 18.3333Z" fill="#16161A"/>
<circle cx="14.5" cy="4.5" r="2.5" fill="#1786F9"/>
</svg>
