<svg width="16" height="12" viewBox="0 0 16 12" fill="none" xmlns="http://www.w3.org/2000/svg">
<path d="M9.99834 10.5C10.1258 10.5001 10.2484 10.5489 10.341 10.6364C10.4337 10.7239 10.4895 10.8435 10.4969 10.9707C10.5044 11.0979 10.463 11.2232 10.3812 11.3209C10.302 11.4155 10.1907 11.4774 10.0689 11.4949L9.98395 11.5H5.99945C5.87201 11.4999 5.74943 11.4511 5.65676 11.3636C5.56409 11.2761 5.50833 11.1565 5.50086 11.0293C5.49339 10.9021 5.53478 10.7768 5.61658 10.6791C5.69577 10.5845 5.80705 10.5226 5.9289 10.5051L6.01383 10.5H9.99834ZM11.9983 5.5C11.9984 5.5 11.9986 5.5 11.9987 5.5C12.126 5.50023 12.2484 5.54901 12.341 5.63642C12.4337 5.72391 12.4895 5.84348 12.4969 5.9707C12.5044 6.09792 12.463 6.22319 12.3812 6.32092C12.302 6.41553 12.1907 6.47742 12.0689 6.49492L11.984 6.5L3.99945 6.5C3.99934 6.5 3.99923 6.5 3.99912 6.5C3.87179 6.49977 3.74935 6.45098 3.65676 6.36358C3.56409 6.27609 3.50833 6.15652 3.50086 6.0293C3.49339 5.90208 3.53478 5.77681 3.61658 5.67908C3.69577 5.58447 3.80705 5.52258 3.9289 5.50508L4.01383 5.5L11.9983 5.5ZM14.9986 0.5C15.1259 0.500198 15.2484 0.54899 15.341 0.636424C15.4337 0.723908 15.4895 0.843476 15.4969 0.970698C15.5044 1.09792 15.463 1.22319 15.3812 1.32092C15.302 1.41553 15.1907 1.47742 15.0689 1.49492L14.9839 1.5H0.999186C0.871839 1.49979 0.749367 1.451 0.656762 1.36358C0.564095 1.27609 0.508329 1.15652 0.500861 1.0293C0.493392 0.902082 0.534784 0.776811 0.616579 0.679084C0.695772 0.584467 0.80705 0.522584 0.9289 0.505082L1.01384 0.5H14.9986Z" fill="#16161A" stroke="#16161A"/>
</svg>
