<svg width="20" height="20" viewBox="0 0 20 20" fill="none" xmlns="http://www.w3.org/2000/svg">
<path d="M17.6252 5.14167C17.2835 4.95834 16.5668 4.76667 15.5918 5.45L14.3668 6.31667C14.2752 3.725 13.1502 2.70834 10.4168 2.70834H5.41683C2.56683 2.70834 1.4585 3.81667 1.4585 6.66667V13.3333C1.4585 15.25 2.50016 17.2917 5.41683 17.2917H10.4168C13.1502 17.2917 14.2752 16.275 14.3668 13.6833L15.5918 14.55C16.1085 14.9167 16.5585 15.0333 16.9168 15.0333C17.2252 15.0333 17.4668 14.9417 17.6252 14.8583C17.9668 14.6833 18.5418 14.2083 18.5418 13.0167V6.98334C18.5418 5.79167 17.9668 5.31667 17.6252 5.14167ZM9.16683 9.48334C8.3085 9.48334 7.60016 8.78334 7.60016 7.91667C7.60016 7.05 8.3085 6.35 9.16683 6.35C10.0252 6.35 10.7335 7.05 10.7335 7.91667C10.7335 8.78334 10.0252 9.48334 9.16683 9.48334Z" fill="#16161A"/>
</svg>
