<svg width="20" height="20" viewBox="0 0 20 20" fill="none" xmlns="http://www.w3.org/2000/svg">
<path d="M18.3337 9.37502H16.6337C16.3337 6.20002 13.8003 3.65835 10.6253 3.36669V1.66669C10.6253 1.32502 10.342 1.04169 10.0003 1.04169C9.65866 1.04169 9.37533 1.32502 9.37533 1.66669V3.36669C6.20033 3.66669 3.65866 6.20002 3.36699 9.37502H1.66699C1.32533 9.37502 1.04199 9.65835 1.04199 10C1.04199 10.3417 1.32533 10.625 1.66699 10.625H3.36699C3.66699 13.8 6.20033 16.3417 9.37533 16.6334V18.3334C9.37533 18.675 9.65866 18.9584 10.0003 18.9584C10.342 18.9584 10.6253 18.675 10.6253 18.3334V16.6334C13.8003 16.3334 16.342 13.8 16.6337 10.625H18.3337C18.6753 10.625 18.9587 10.3417 18.9587 10C18.9587 9.65835 18.6753 9.37502 18.3337 9.37502ZM10.0003 12.6C8.56699 12.6 7.40033 11.4334 7.40033 10C7.40033 8.56669 8.56699 7.40002 10.0003 7.40002C11.4337 7.40002 12.6003 8.56669 12.6003 10C12.6003 11.4334 11.4337 12.6 10.0003 12.6Z" fill="#16161A"/>
</svg>
