<svg width="20" height="20" viewBox="0 0 20 20" fill="none" xmlns="http://www.w3.org/2000/svg">
<path d="M0.833008 18.3333H19.1663" stroke="#1786F9" stroke-width="1.2" stroke-miterlimit="10" stroke-linecap="round" stroke-linejoin="round"/>
<path d="M16.4834 18.3417V14.625" stroke="#1786F9" stroke-width="1.2" stroke-miterlimit="10" stroke-linecap="round" stroke-linejoin="round"/>
<path d="M16.5003 9.07501C15.4837 9.07501 14.667 9.89169 14.667 10.9084V12.8C14.667 13.8167 15.4837 14.6333 16.5003 14.6333C17.517 14.6333 18.3337 13.8167 18.3337 12.8V10.9084C18.3337 9.89169 17.517 9.07501 16.5003 9.07501Z" stroke="#1786F9" stroke-width="1.2" stroke-miterlimit="10" stroke-linecap="round" stroke-linejoin="round"/>
<path d="M1.75 18.3334V5.02504C1.75 3.35004 2.58338 2.50836 4.24171 2.50836H9.43336C11.0917 2.50836 11.9167 3.35004 11.9167 5.02504V18.3334" stroke="#1786F9" stroke-width="1.2" stroke-miterlimit="10" stroke-linecap="round" stroke-linejoin="round"/>
<path d="M4.83301 6.875H8.95802" stroke="#1786F9" stroke-width="1.2" stroke-miterlimit="10" stroke-linecap="round" stroke-linejoin="round"/>
<path d="M4.83301 10H8.95802" stroke="#1786F9" stroke-width="1.2" stroke-miterlimit="10" stroke-linecap="round" stroke-linejoin="round"/>
<path d="M6.875 18.3333V15.2083" stroke="#1786F9" stroke-width="1.2" stroke-miterlimit="10" stroke-linecap="round" stroke-linejoin="round"/>
</svg>
